<svg width="92" height="103" viewBox="0 0 92 103" fill="none" xmlns="http://www.w3.org/2000/svg">
<path d="M78.2407 31.1608C78.0273 30.9648 77.6004 30.7688 77.1736 30.7688C75.6796 30.7688 74.8259 31.1608 73.9722 31.7487C73.9722 31.3568 73.9722 30.9648 73.7588 30.7688C73.3319 28.809 71.838 27.4372 70.7708 26.6533C72.2648 22.9296 70.7709 19.794 68.4232 18.2261C65.4353 16.2663 62.6607 16.6583 60.5265 17.2462C60.0997 14.8945 58.6057 11.9548 54.3372 11.3668C49.4285 10.7789 46.8674 13.3266 45.8003 15.8744C43.4526 14.8945 40.4647 14.3065 37.6901 16.8543C37.4767 16.6583 37.0499 16.2663 36.8364 16.0704C35.7693 15.2864 35.3425 14.8945 35.3425 14.1106V1.37186C35.3425 0.58794 34.7022 0 33.8485 0H27.8726C27.019 0 26.3787 0.58794 26.3787 1.37186V14.1106C26.3787 14.8945 25.9518 15.0905 24.8847 16.0704C22.7505 17.8342 19.7625 20.3819 19.7625 29.397V32.5327C18.9088 31.7487 17.6283 30.7688 15.4941 30.7688C14.6404 30.7688 14.0001 31.3568 14.0001 32.1407L15.2806 70.1608C15.2806 74.4724 18.482 78 22.7505 78H70.1306C74.1856 78 77.6004 74.4724 77.6004 70.1608L78.6675 32.1407C78.6675 31.7487 78.4541 31.3568 78.2407 31.1608ZM44.5197 16.8543C44.9466 17.0503 45.8951 16.9943 46.5354 16.7983C46.5354 17.1902 46.9622 16.6023 46.5354 16.7983C46.5354 16.7983 49.4285 11.9771 54.3372 12.565C58.3923 13.1529 58.3923 15.6784 58.3923 16.0704C58.3923 16.6583 59.578 18.0301 59.578 18.0301C60.0048 18.2261 61.1668 18.4221 61.807 18.2261C61.807 18.2261 64.6764 16.3223 67.8778 18.4781C69.3717 19.458 71.6245 21.7955 70.1306 24.5393C69.7037 25.1272 68.85 27.0452 69.4903 27.4372C69.4903 27.4372 72.6972 30.5402 73.1241 32.5C73.3375 33.2839 72.6205 34.1005 72.6205 34.1005C72.6205 34.1005 72.6205 34.1005 71.5965 35.1274C71.5965 35.1274 68.0233 36.7279 65.0001 34.7279C65.0001 34.7279 62.3894 32.9387 61.674 31.7279C60.2277 27.5392 58.8191 25.8693 56.0446 25.2814C55.4043 25.0854 54.9775 25.0854 54.5506 24.8894C55.4043 23.5176 56.0446 20.7739 53.4835 19.01C53.0567 18.8141 52.203 18.8141 51.7761 19.402C51.3493 19.99 51.5627 20.5779 52.203 20.9698C53.6969 21.9497 52.6298 23.7136 52.4164 24.1055L51.9895 23.9095C50.0687 22.7337 47.2942 21.1658 44.5197 22.1457C43.4526 22.5377 41.4606 25.8693 40.6069 26.8492C40.1801 24.4975 40.6069 18.5659 38.8284 17.3582C39.8955 15.9864 40.6069 15.1184 44.5197 16.8543ZM41.7452 27.4372C42.8123 25.4774 44.7331 23.196 45.8003 23C47.5076 22.4121 50.587 24.7279 50.587 24.7279C50.587 24.7279 52.2501 25.7279 52.8044 25.7279L55.5762 26.2279C58.5641 26.8159 59.4566 28.2279 60.5653 31.7279C58.6445 31.9239 57.752 32.5327 56.6849 33.3166C55.6178 34.2965 55.1909 34.6884 53.9104 34.6884C52.6298 34.6884 50.9086 34.2839 49.8414 33.5C48.7328 32.8136 48.8076 32.8969 46.5154 32.3136C44.2794 32.3136 40.9719 36 39.1841 34.1005C39.3975 33.5126 41.7452 28.0251 41.7452 27.4372ZM27.3646 1.8136H34.2746V9.60302H27.3646V1.8136ZM23.9784 18C25.087 17 27.3044 15.9598 27.3044 14L27.3646 11.3668H34.2746V14.335C34.2746 16.2948 37.837 17.5 38.3914 19C38.9457 21 38.9707 21.1658 39.1841 28.2211C38.117 30.5729 37.6901 32.5327 37.6901 34.2965C36.6265 35.6404 35.1255 33.8136 35.1255 33.8136C35.1255 33.8136 33.6351 31.9167 31.074 31.9167C29.0277 32.8136 28.3023 33.5 27.2324 34.1005C26.1653 35.0804 22.8697 35.5 21.6359 34.8844C20.4022 34.2688 20.6415 32.9871 20.6523 34.5C20.4388 26.6608 22.0575 19.5678 23.9784 18ZM76.7942 70.5528C76.7942 73.2965 73.0711 77.2721 70.7708 77.2721H22.7505C20.1894 77.2721 16.3241 73.1005 16.3241 70.1608L15.1384 31.9167C15.1384 31.9167 18.4349 32.5 19.5436 34C21.8028 36.0983 20.8629 36 23.424 36C26.1957 35.5 26.3696 35.5 27.919 34.8844C29.1413 34 30.5189 32.8136 31.7994 32.8136C31.7994 32.8136 32.2706 32.4292 34.0168 34.3136C35.0839 35.2935 36.623 35.6404 39.1841 35.6404C41.7452 35.6404 42.8354 35.4724 43.9025 34.2965C44.9696 33.3166 45.16 33.5126 46.4405 33.5126C47.7211 33.5126 48.1479 34.1005 49.215 34.8844C50.2822 35.8643 51.9895 36.2003 54.5506 36.2003C57.1117 36.2003 57.0895 34.9895 58.1567 33.8136C59.2238 32.8337 61.0546 32.4767 61.0546 32.4767C61.0546 32.4767 62.9545 34.2279 64.2545 35.1274C65.3632 35.8946 66.934 36.3136 69.4951 36.3136C73.3153 36.2279 73.9248 33.6525 74.9919 32.4767C75.4188 32.0847 77.1736 32.3367 77.6004 32.1407L76.7942 70.5528Z" fill="#B03A1D"/>
<path d="M1.8 98V84.76H5.58C7.15333 84.76 8.57333 85.0933 9.84 85.76C10.52 86.1067 11.1133 86.54 11.62 87.06C12.1267 87.58 12.5333 88.2467 12.84 89.06C13.1467 89.86 13.3 90.7533 13.3 91.74C13.3 93.1533 12.9467 94.3467 12.24 95.32C10.9467 97.1067 8.85333 98 5.96 98H1.8ZM5.56 97.32C7.25333 97.32 8.61333 96.82 9.64 95.82C10.6667 94.82 11.18 93.3533 11.18 91.42C11.18 89.9267 10.7733 88.6533 9.96 87.6C9.14667 86.5333 8.09333 85.8267 6.8 85.48C5.64 85.48 4.62667 85.62 3.76 85.9V97.14C4.18667 97.26 4.78667 97.32 5.56 97.32ZM19.8602 95.88V93.82C18.9002 93.8867 18.1135 94.1 17.5002 94.46C16.8868 94.82 16.5802 95.2067 16.5802 95.62C16.5802 96.0333 16.6868 96.3933 16.9002 96.7C17.1135 96.9933 17.3868 97.2 17.7202 97.32C18.1602 97.24 18.6268 97.02 19.1202 96.66C19.6135 96.3 19.8602 96.04 19.8602 95.88ZM21.5002 95.34C21.5002 96.2867 21.8468 97.0067 22.5402 97.5L21.5002 98.26L19.8802 96.8C18.8268 97.76 17.8535 98.24 16.9602 98.24C16.3735 98.24 15.8668 98.0533 15.4402 97.68C15.0268 97.3067 14.8202 96.84 14.8202 96.28C14.8202 95.7067 14.9868 95.2333 15.3202 94.86C15.6668 94.4867 16.1202 94.2 16.6802 94C17.6402 93.64 18.7002 93.4133 19.8602 93.32V91.44C19.8602 90.3333 19.2202 89.78 17.9402 89.78C17.2068 89.78 16.3402 89.94 15.3402 90.26L15.1602 89.76C15.4268 89.5467 15.8868 89.32 16.5402 89.08C17.2068 88.84 17.8402 88.72 18.4402 88.72C19.0402 88.72 19.5402 88.8 19.9402 88.96C20.3535 89.12 20.6535 89.3 20.8402 89.5C21.0402 89.7 21.1935 89.9733 21.3002 90.32C21.4068 90.6667 21.4668 90.94 21.4802 91.14C21.4935 91.34 21.5002 91.6067 21.5002 91.94V95.34ZM25.6869 96.2C25.6869 96.4533 25.8735 96.6267 26.2469 96.72C26.6335 96.8133 27.3669 96.86 28.4469 96.86C29.5269 96.86 30.3935 96.98 31.0469 97.22C31.7002 97.46 32.0269 97.9133 32.0269 98.58C32.0269 99.5667 31.5402 100.453 30.5669 101.24C29.6069 102.04 28.4269 102.44 27.0269 102.44C26.0135 102.44 25.1802 102.247 24.5269 101.86C23.8869 101.487 23.5669 100.947 23.5669 100.24C23.5669 99.24 24.1135 98.5 25.2069 98.02C24.5935 97.7933 24.2869 97.3733 24.2869 96.76C24.2869 96.1333 24.7669 95.4533 25.7269 94.72C24.7269 94.2 24.2269 93.3533 24.2269 92.18C24.2269 90.9933 24.5935 90.12 25.3269 89.56C26.0735 89 26.9069 88.72 27.8269 88.72C28.4802 88.72 29.1069 88.9 29.7069 89.26L31.4669 88.76L31.8669 89.62L30.6269 90.24C30.8802 90.68 31.0069 91.1933 31.0069 91.78C31.0069 92.3667 30.8869 92.8867 30.6469 93.34C30.4202 93.78 30.1202 94.12 29.7469 94.36C29.0002 94.84 28.1935 95.08 27.3269 95.08C27.1935 95.08 27.0069 95.0667 26.7669 95.04C26.5402 95.1067 26.3002 95.2533 26.0469 95.48C25.8069 95.7067 25.6869 95.9467 25.6869 96.2ZM29.4269 91.96C29.4269 91.2667 29.2402 90.6667 28.8669 90.16C28.5069 89.64 28.0535 89.38 27.5069 89.38C26.9735 89.38 26.5469 89.6133 26.2269 90.08C25.9069 90.5467 25.7469 91.1533 25.7469 91.9C25.7469 92.6333 25.9269 93.2467 26.2869 93.74C26.6469 94.22 27.0802 94.46 27.5869 94.46C28.8135 94.46 29.4269 93.6267 29.4269 91.96ZM27.3469 101.52C28.4535 101.52 29.3935 101.213 30.1669 100.6C30.9402 99.9867 31.3269 99.3733 31.3269 98.76C30.6469 98.48 29.6935 98.34 28.4669 98.34C27.2535 98.34 26.4135 98.3 25.9469 98.22C25.3602 98.7133 25.0669 99.24 25.0669 99.8C25.0669 100.947 25.8269 101.52 27.3469 101.52ZM36.0316 84.34V98H34.3516V84.34H36.0316ZM39.0391 98V88.96H40.6991V98H39.0391ZM38.8391 86.18C38.8391 85.8867 38.9324 85.64 39.1191 85.44C39.3191 85.24 39.5591 85.14 39.8391 85.14C40.1324 85.14 40.3791 85.24 40.5791 85.44C40.7924 85.64 40.8991 85.88 40.8991 86.16C40.8991 86.44 40.7924 86.6867 40.5791 86.9C40.3791 87.1133 40.1391 87.22 39.8591 87.22C39.5791 87.22 39.3391 87.12 39.1391 86.92C38.9391 86.7067 38.8391 86.46 38.8391 86.18ZM44.847 96.2C44.847 96.4533 45.0337 96.6267 45.407 96.72C45.7937 96.8133 46.527 96.86 47.607 96.86C48.687 96.86 49.5537 96.98 50.207 97.22C50.8604 97.46 51.187 97.9133 51.187 98.58C51.187 99.5667 50.7004 100.453 49.727 101.24C48.767 102.04 47.587 102.44 46.187 102.44C45.1737 102.44 44.3404 102.247 43.687 101.86C43.047 101.487 42.727 100.947 42.727 100.24C42.727 99.24 43.2737 98.5 44.367 98.02C43.7537 97.7933 43.447 97.3733 43.447 96.76C43.447 96.1333 43.927 95.4533 44.887 94.72C43.887 94.2 43.387 93.3533 43.387 92.18C43.387 90.9933 43.7537 90.12 44.487 89.56C45.2337 89 46.067 88.72 46.987 88.72C47.6404 88.72 48.267 88.9 48.867 89.26L50.627 88.76L51.027 89.62L49.787 90.24C50.0404 90.68 50.167 91.1933 50.167 91.78C50.167 92.3667 50.047 92.8867 49.807 93.34C49.5804 93.78 49.2804 94.12 48.907 94.36C48.1604 94.84 47.3537 95.08 46.487 95.08C46.3537 95.08 46.167 95.0667 45.927 95.04C45.7004 95.1067 45.4604 95.2533 45.207 95.48C44.967 95.7067 44.847 95.9467 44.847 96.2ZM48.587 91.96C48.587 91.2667 48.4004 90.6667 48.027 90.16C47.667 89.64 47.2137 89.38 46.667 89.38C46.1337 89.38 45.707 89.6133 45.387 90.08C45.067 90.5467 44.907 91.1533 44.907 91.9C44.907 92.6333 45.087 93.2467 45.447 93.74C45.807 94.22 46.2404 94.46 46.747 94.46C47.9737 94.46 48.587 93.6267 48.587 91.96ZM46.507 101.52C47.6137 101.52 48.5537 101.213 49.327 100.6C50.1004 99.9867 50.487 99.3733 50.487 98.76C49.807 98.48 48.8537 98.34 47.627 98.34C46.4137 98.34 45.5737 98.3 45.107 98.22C44.5204 98.7133 44.227 99.24 44.227 99.8C44.227 100.947 44.987 101.52 46.507 101.52ZM56.4317 98.26H56.1317L52.2117 88.96H53.9717L56.7317 95.96L59.3517 88.96H60.1117L56.4317 98.26ZM66.0125 95.88V93.82C65.0525 93.8867 64.2658 94.1 63.6525 94.46C63.0392 94.82 62.7325 95.2067 62.7325 95.62C62.7325 96.0333 62.8392 96.3933 63.0525 96.7C63.2658 96.9933 63.5392 97.2 63.8725 97.32C64.3125 97.24 64.7792 97.02 65.2725 96.66C65.7658 96.3 66.0125 96.04 66.0125 95.88ZM67.6525 95.34C67.6525 96.2867 67.9992 97.0067 68.6925 97.5L67.6525 98.26L66.0325 96.8C64.9792 97.76 64.0058 98.24 63.1125 98.24C62.5258 98.24 62.0192 98.0533 61.5925 97.68C61.1792 97.3067 60.9725 96.84 60.9725 96.28C60.9725 95.7067 61.1392 95.2333 61.4725 94.86C61.8192 94.4867 62.2725 94.2 62.8325 94C63.7925 93.64 64.8525 93.4133 66.0125 93.32V91.44C66.0125 90.3333 65.3725 89.78 64.0925 89.78C63.3592 89.78 62.4925 89.94 61.4925 90.26L61.3125 89.76C61.5792 89.5467 62.0392 89.32 62.6925 89.08C63.3592 88.84 63.9925 88.72 64.5925 88.72C65.1925 88.72 65.6925 88.8 66.0925 88.96C66.5058 89.12 66.8058 89.3 66.9925 89.5C67.1925 89.7 67.3458 89.9733 67.4525 90.32C67.5592 90.6667 67.6192 90.94 67.6325 91.14C67.6458 91.34 67.6525 91.6067 67.6525 91.94V95.34ZM72.1592 98H70.4792V88.96H71.6392L72.0992 90.64C72.3659 90.1733 72.7859 89.7333 73.3592 89.32C73.9459 88.9067 74.5459 88.6533 75.1592 88.56L75.3592 89.94C74.8659 89.94 74.3059 90.0933 73.6792 90.4C73.0659 90.7067 72.5592 91.0467 72.1592 91.42V98ZM77.6664 93.08C77.6664 94.52 77.9864 95.56 78.6264 96.2C79.2797 96.8267 80.0664 97.14 80.9864 97.14C81.9197 97.14 82.7797 96.96 83.5664 96.6V97.3C82.4731 97.9267 81.4264 98.24 80.4264 98.24C79.1331 98.24 78.0864 97.8467 77.2864 97.06C76.4864 96.2733 76.0864 95.1333 76.0864 93.64C76.0864 92.1467 76.5264 90.9533 77.4064 90.06C78.2997 89.1667 79.3731 88.72 80.6264 88.72C81.5997 88.72 82.4131 89.1067 83.0664 89.88C83.7197 90.64 84.0464 91.7067 84.0464 93.08H77.6664ZM79.6064 89.66C79.1397 89.8867 78.7397 90.2533 78.4064 90.76C78.0731 91.2533 77.8531 91.8267 77.7464 92.48H82.4264C82.3864 91.92 82.2531 91.44 82.0264 91.04C81.8131 90.64 81.5531 90.3467 81.2464 90.16C80.6997 89.8267 80.1531 89.66 79.6064 89.66ZM87.9014 98H86.2214V88.96H87.3814L87.8414 90.64C88.1081 90.1733 88.5281 89.7333 89.1014 89.32C89.6881 88.9067 90.2881 88.6533 90.9014 88.56L91.1014 89.94C90.6081 89.94 90.0481 90.0933 89.4214 90.4C88.8081 90.7067 88.3014 91.0467 87.9014 91.42V98Z" fill="#B03A1D"/>
</svg>
