<svg width="65" height="78" viewBox="0 0 65 78" fill="none" xmlns="http://www.w3.org/2000/svg">
<path d="M64.2408 31.1608C64.0273 30.9648 63.6005 30.7688 63.1736 30.7688C61.6797 30.7688 60.826 31.1608 59.9723 31.7487C59.9723 31.3568 59.9723 30.9648 59.7589 30.7688C59.332 28.809 57.838 27.4372 56.7709 26.6533C58.2649 22.9296 56.7709 19.794 54.4233 18.2261C51.4353 16.2663 48.6608 16.6583 46.5266 17.2462C46.0997 14.8945 44.6058 11.9548 40.3373 11.3668C35.4285 10.7789 32.8674 13.3266 31.8003 15.8744C29.4527 14.8945 26.4647 14.3065 23.6902 16.8543C23.4768 16.6583 23.0499 16.2663 22.8365 16.0704C21.7694 15.2864 21.3425 14.8945 21.3425 14.1106V1.37186C21.3425 0.58794 20.7023 0 19.8486 0H13.8727C13.019 0 12.3787 0.58794 12.3787 1.37186V14.1106C12.3787 14.8945 11.9519 15.0905 10.8848 16.0704C8.75053 17.8342 5.7626 20.3819 5.7626 29.397V32.5327C4.9089 31.7487 3.62836 30.7688 1.49412 30.7688C0.640425 30.7688 0.000152256 31.3568 0.000152256 32.1407L1.2807 70.1608C1.2807 74.4724 4.48206 78 8.75053 78H56.1306C60.1857 78 63.6005 74.4724 63.6005 70.1608L64.6676 32.1407C64.6676 31.7487 64.4542 31.3568 64.2408 31.1608ZM30.5198 16.8543C30.9466 17.0503 31.8952 16.9943 32.5354 16.7983C32.5354 17.1902 32.9623 16.6023 32.5354 16.7983C32.5354 16.7983 35.4285 11.9771 40.3373 12.565C44.3923 13.1529 44.3923 15.6784 44.3923 16.0704C44.3923 16.6583 45.578 18.0301 45.578 18.0301C46.0049 18.2261 47.1668 18.4221 47.8071 18.2261C47.8071 18.2261 50.6765 16.3223 53.8778 18.4781C55.3718 19.458 57.6246 21.7955 56.1306 24.5393C55.7038 25.1272 54.8501 27.0452 55.4904 27.4372C55.4904 27.4372 58.6973 30.5402 59.1241 32.5C59.3375 33.2839 58.6206 34.1005 58.6206 34.1005C58.6206 34.1005 58.6206 34.1005 57.5966 35.1274C57.5966 35.1274 54.0233 36.7279 51.0002 34.7279C51.0002 34.7279 48.3894 32.9387 47.6741 31.7279C46.2278 27.5392 44.8192 25.8693 42.0447 25.2814C41.4044 25.0854 40.9775 25.0854 40.5507 24.8894C41.4044 23.5176 42.0447 20.7739 39.4836 19.01C39.0567 18.8141 38.203 18.8141 37.7762 19.402C37.3493 19.99 37.5628 20.5779 38.203 20.9698C39.697 21.9497 38.6299 23.7136 38.4165 24.1055L37.9896 23.9095C36.0688 22.7337 33.2943 21.1658 30.5198 22.1457C29.4527 22.5377 27.4607 25.8693 26.607 26.8492C26.1802 24.4975 26.607 18.5659 24.8285 17.3582C25.8956 15.9864 26.607 15.1184 30.5198 16.8543ZM27.7453 27.4372C28.8124 25.4774 30.7332 23.196 31.8003 23C33.5077 22.4121 36.5871 24.7279 36.5871 24.7279C36.5871 24.7279 38.2502 25.7279 38.8045 25.7279L41.5762 26.2279C44.5642 26.8159 45.4567 28.2279 46.5654 31.7279C44.6446 31.9239 43.7521 32.5327 42.6849 33.3166C41.6178 34.2965 41.191 34.6884 39.9104 34.6884C38.6299 34.6884 36.9086 34.2839 35.8415 33.5C34.7328 32.8136 34.8077 32.8969 32.5154 32.3136C30.2795 32.3136 26.9719 36 25.1842 34.1005C25.3976 33.5126 27.7453 28.0251 27.7453 27.4372ZM13.3647 1.8136H20.2747V9.60302H13.3647V1.8136ZM9.97841 18C11.0871 17 13.3045 15.9598 13.3045 14L13.3647 11.3668H20.2747V14.335C20.2747 16.2948 23.8371 17.5 24.3915 19C24.9458 21 24.9707 21.1658 25.1842 28.2211C24.1171 30.5729 23.6902 32.5327 23.6902 34.2965C22.6266 35.6404 21.1256 33.8136 21.1256 33.8136C21.1256 33.8136 19.6352 31.9167 17.0741 31.9167C15.0277 32.8136 14.3024 33.5 13.2324 34.1005C12.1653 35.0804 8.86972 35.5 7.63599 34.8844C6.40226 34.2688 6.64153 32.9871 6.65233 34.5C6.4389 26.6608 8.0576 19.5678 9.97841 18ZM62.7943 70.5528C62.7943 73.2965 59.0712 77.2721 56.7709 77.2721H8.75053C6.18945 77.2721 2.32415 73.1005 2.32415 70.1608L1.13846 31.9167C1.13846 31.9167 4.43493 32.5 5.54363 34C7.80286 36.0983 6.86298 36 9.42406 36C12.1958 35.5 12.3696 35.5 13.919 34.8844C15.1414 34 16.5189 32.8136 17.7995 32.8136C17.7995 32.8136 18.2707 32.4292 20.0169 34.3136C21.084 35.2935 22.6231 35.6404 25.1842 35.6404C27.7453 35.6404 28.8354 35.4724 29.9026 34.2965C30.9697 33.3166 31.16 33.5126 32.4406 33.5126C33.7211 33.5126 34.148 34.1005 35.2151 34.8844C36.2822 35.8643 37.9896 36.2003 40.5507 36.2003C43.1118 36.2003 43.0896 34.9895 44.1567 33.8136C45.2238 32.8337 47.0547 32.4767 47.0547 32.4767C47.0547 32.4767 48.9546 34.2279 50.2546 35.1274C51.3632 35.8946 52.934 36.3136 55.4951 36.3136C59.3154 36.2279 59.9248 33.6525 60.992 32.4767C61.4188 32.0847 63.1736 32.3367 63.6005 32.1407L62.7943 70.5528Z" fill="#B03A1D"/>
</svg>
