<svg width="66" height="11" viewBox="0 0 66 11" fill="none" xmlns="http://www.w3.org/2000/svg">
<path d="M61.0607 9C63.0993 9 64.752 7.433 64.752 5.5C64.752 3.567 63.0993 2 61.0607 2C59.022 2 57.3694 3.567 57.3694 5.5C57.3694 7.433 59.022 9 61.0607 9Z" stroke="#B03A1D" stroke-width="2.5" stroke-linecap="round" stroke-linejoin="round"/>
<path d="M5.6913 9C7.72994 9 9.38259 7.433 9.38259 5.5C9.38259 3.567 7.72994 2 5.6913 2C3.65265 2 2 3.567 2 5.5C2 7.433 3.65265 9 5.6913 9Z" stroke="#B03A1D" stroke-width="2.5" stroke-linecap="round" stroke-linejoin="round"/>
<path d="M33.3761 9C35.4148 9 36.5137 7.433 36.5137 5.5C36.5137 3.567 35.4148 2 33.3761 2C31.3375 2 29.6848 3.567 29.6848 5.5C29.6848 7.433 31.3375 9 33.3761 9Z" stroke="#B03A1D" stroke-width="2.5" stroke-linecap="round" stroke-linejoin="round"/>
</svg>
