<svg width="45" height="43" viewBox="0 0 45 43" fill="none" xmlns="http://www.w3.org/2000/svg">
<path d="M28.7249 22.3767L28.0322 21.2964C27.5839 21.5556 27.3377 22.0405 27.4035 22.535C27.469 23.0293 28.2227 22.8546 28.7249 23V22.3767ZM15.8867 22.1459L15.3261 23.3049C15.8282 23.1595 17.5311 23.0293 17.5969 22.535C17.6624 22.0405 17.4163 21.5556 16.9679 21.2964L15.8867 22.1459ZM34.0294 12.6471C35.1911 16.5 32.0294 21.1669 28.0322 21.2964L28.7249 23H29.5294C32.0294 20.6867 35.8208 17.2286 35.8208 12.6471H34.0294ZM22.5002 1C28.3855 1 34.0294 7.05923 34.0294 12.6471H35.8208C35.8208 5.66229 29.8569 0 22.5002 0V1ZM10.5294 12.6471C10.5294 7.05923 16.6147 1 22.5002 1V0C15.1433 0 9.1795 5.66229 9.1795 12.6471H10.5294ZM16.9679 21.2964C13.0294 21.5404 9.98969 17 10.5294 12.6471H9.1795C9.1795 17.2286 11.4898 21.0877 15.3261 23.3049L16.9679 21.2964ZM15.8867 21.1669C7.47679 23.6017 1.14346 30.5563 0.029541 39.0546L1.3514 39.2109C2.33339 31.7191 7.90542 25.4532 15.3261 23.3049L15.8867 21.1669ZM0.029541 39.0546C-0.26487 41.3007 1.69491 43 3.85127 43V42C3.06496 42 1.2824 39.7376 1.3514 39.2109L0.029541 39.0546ZM3.85127 43H41.149V42H3.85127V43ZM41.149 43C43.3053 43 45.2651 41.3007 44.9707 39.0546L43.6487 39.2109C43.7177 39.7376 41.9352 42 41.149 42V43ZM44.9707 39.0546C43.8568 30.5563 37.5234 23.6017 29.1133 21.1669L28.7249 23C36.2249 23.5 42.6667 31.7191 43.6487 39.2109L44.9707 39.0546Z" fill="#B03A1D"/>
</svg>
