<svg width="33" height="34" viewBox="0 0 33 34" fill="none" xmlns="http://www.w3.org/2000/svg">
<path d="M15.8685 27.6117C17.5515 27.6117 18.9209 29.0447 18.9209 30.8058C18.9209 32.567 17.5515 34 15.8685 34C14.1855 34 12.8162 32.567 12.8162 30.8058C12.8162 29.0447 14.1855 27.6117 15.8685 27.6117ZM18.033 30.8058C18.033 29.5578 17.0612 28.5408 15.8685 28.5408C14.6759 28.5408 13.704 29.5578 13.704 30.8058C13.704 32.0539 14.6759 33.0709 15.8685 33.0709C17.0612 33.0709 18.033 32.0539 18.033 30.8058Z" fill="#2B2B2B"/>
<path d="M32.4245 6.59013C32.937 7.26964 33.1181 8.13867 32.9237 8.97534L31.0066 17.2912C30.6488 18.8397 29.3368 19.9214 27.8129 19.9214H13.4963V18.9923H27.8129C28.9216 18.9923 29.8802 18.2018 30.1452 17.074L32.0623 8.75809C32.1904 8.19876 32.0712 7.61633 31.731 7.16332C31.3909 6.71032 30.8785 6.45146 30.3263 6.45146H8.29272V5.52234H30.3307C31.1479 5.52234 31.9121 5.91063 32.4245 6.59013Z" fill="#2B2B2B"/>
<path d="M30.5944 24.8552V25.7843H13.57C12.3199 25.7843 11.2244 24.9014 10.9019 23.6348L5.52607 2.38521C5.30962 1.52542 4.56309 0.929121 3.71938 0.929121H0V0H3.71497C4.96507 0 6.06056 0.882897 6.38303 2.14946L11.7633 23.3991C11.9798 24.2542 12.7263 24.8552 13.5744 24.8552H30.5944ZM28.3724 27.4114C30.0554 27.4114 31.4248 28.8444 31.4248 30.6055C31.4248 32.3667 30.0554 33.7997 28.3724 33.7997C26.6894 33.7997 25.3201 32.3667 25.3201 30.6055C25.3201 28.8444 26.6894 27.4114 28.3724 27.4114ZM30.5369 30.6055C30.5369 29.3575 29.5651 28.3405 28.3724 28.3405C27.1798 28.3405 26.208 29.3575 26.208 30.6055C26.208 31.8536 27.1798 32.8706 28.3724 32.8706C29.5651 32.8706 30.5369 31.8536 30.5369 30.6055Z" fill="#2B2B2B"/>
</svg>
