<svg width="77" height="19" viewBox="0 0 77 19" fill="none" xmlns="http://www.w3.org/2000/svg">
<path d="M19.5997 9.5C19.5997 14.5992 15.2927 18.75 9.95831 18.75C4.62389 18.75 0.316895 14.5992 0.316895 9.5C0.316895 4.40078 4.62389 0.25 9.95831 0.25C15.2927 0.25 19.5997 4.40078 19.5997 9.5Z" fill="black" stroke="black" stroke-width="0.5"/>
<path d="M47.712 9.5C47.712 14.5992 43.405 18.75 38.0706 18.75C32.7362 18.75 28.4292 14.5992 28.4292 9.5C28.4292 4.40078 32.7362 0.25 38.0706 0.25C43.405 0.25 47.712 4.40078 47.712 9.5Z" fill="black" stroke="black" stroke-width="0.5"/>
<path d="M75.8243 9.5C75.8243 14.5992 71.5173 18.75 66.1829 18.75C60.8485 18.75 56.5415 14.5992 56.5415 9.5C56.5415 4.40078 60.8485 0.25 66.1829 0.25C71.5173 0.25 75.8243 4.40078 75.8243 9.5Z" stroke="black" stroke-width="0.5"/>
</svg>
