<svg width="43" height="40" viewBox="0 0 43 40" fill="none" xmlns="http://www.w3.org/2000/svg">
<g clip-path="url(#clip0_331_1719)">
<path d="M41.5534 5.5002L39.1217 3.23902C38.8663 2.9937 38.6852 3.25501 38.4298 3.50032L26.827 14.3186C26.5715 14.0732 26.5618 14.2553 26.3064 14.5006L2.35868 37.3186C2.18434 37.486 2.28204 37.0935 2.35868 37.3186C2.11471 37.283 2.43596 37.5436 2.35868 37.3186C2.44361 37.3308 2.7683 37.7797 3.92038 37.7797C6.10196 37.7797 9.11178 37.4792 12.4084 35.4185C17.2327 32.4034 30.5807 20.0319 31.1413 19.5002C31.2652 19.3831 31.6613 19.1676 31.6619 19.0002C31.6626 18.8328 31.8463 19.0497 31.7231 18.9313L41.5534 8.5002C42.5714 7.52325 42.572 6.47965 41.5534 5.5002ZM26.1744 15.379L28.9094 17.8186C14.9133 33.0376 7.67061 34.6032 5.90888 34.8364L26.1744 15.379ZM12.4084 34.8364C9.19801 36.8432 5.54827 37.094 3.60871 37.0518L5.45213 35.2813C5.58132 35.3299 5.73072 35.3707 5.90888 35.3946C6.02578 35.4105 6.15087 35.4185 6.28632 35.4185C8.88433 35.4185 15.0102 32.3175 29.4111 18.4876L30.3316 19.3717C27.8908 21.6692 16.6228 32.2029 12.4084 34.8364ZM41.4373 7.82598L30.6207 19.0002L26.827 14.813L39.1217 3.8327L41.4353 6.0541C41.9443 6.54356 41.945 7.3384 41.4373 7.82598Z" fill="black"/>
<path d="M30.6022 12.5898C30.2408 12.5898 30.2266 12.8708 30.2266 13.2179L30.2268 15.73C30.2268 16.0771 30.2408 16.358 30.6022 16.358C30.9637 16.358 30.8293 16.0771 30.8293 15.73V13.2179C30.8293 12.8708 30.9637 12.5898 30.6022 12.5898Z" fill="black"/>
<path d="M32.1826 11.1174C32.1826 11.6177 32.1826 11.2703 32.1826 11.6174V14.1174C32.1826 14.4645 32.3155 14.805 32.6769 14.805C32.7032 14.6177 32.7032 14.4645 32.7032 14.1174V11.6174C32.7032 11.2703 32.1827 10.7702 32.1826 11.1174Z" fill="black"/>
<path d="M34.7853 9C34.4239 9 34.2647 9.1529 34.2647 9.50001L34.2646 12C34.2646 12.3471 34.4239 12.5 34.7852 12.5C34.7852 12 34.7852 12.3471 34.7852 12V9.50001C34.7852 9.15282 34.7853 9.5 34.7853 9Z" fill="black"/>
<path d="M36.8678 7C36.5064 7 36.3472 7.1529 36.3472 7.50001L36.3472 10C36.3472 10.3471 36.5064 10.5 36.8678 10.5C36.8678 10 36.8677 10.3471 36.8677 10V7.50001C36.8677 7.15282 36.8678 7.5 36.8678 7Z" fill="black"/>
<path d="M10.2105 17.5387C10.1179 17.4906 10.017 17.4561 9.90429 17.4561H7.0409C5.57403 17.4561 4.42529 19.1114 4.42529 21.2243C4.42529 23.3371 5.57411 24.9925 7.0409 24.9925H9.90429C10.017 24.9925 10.1179 24.9579 10.2103 24.9098C11.4022 24.553 12.2721 23.0623 12.2721 21.2243C12.2721 19.3862 11.4022 17.8957 10.2105 17.5387ZM8.75533 24.5005H6.67292C6.05544 24.5005 5.11112 22.6619 5.11112 21.2243C5.11112 19.7868 6.42326 18.0005 7.04082 18.0005L8.75533 18.0005C8.34763 18.6629 7.5407 20.2493 7.5407 21.2243C7.54078 22.1993 8.34763 23.8381 8.75533 24.5005ZM9.65652 24.5005C9.03903 24.5005 8.09718 22.6619 8.09718 21.2243C8.09718 19.7868 9.03895 18.0005 9.65652 18.0005C10.274 18.0005 11.6428 19.7868 11.6428 21.2243C11.6428 22.6619 10.274 24.5005 9.65652 24.5005Z" fill="black"/>
<path d="M19.5716 7.43512C19.595 7.35466 19.635 7.2738 19.6239 7.19606C19.6334 6.26966 18.7053 5.36161 17.2651 4.99137C16.5659 4.81106 15.8655 4.7945 15.2766 4.94356C14.7218 5.08387 14.3109 5.372 14.0813 5.74981C14.0258 5.81575 13.9846 5.89223 13.9601 5.9795L13.9331 6.08005L13.4432 7.83903C13.1488 8.89395 14.1675 10.0415 15.7607 10.4511C16.1356 10.5475 16.5034 10.5934 16.852 10.5934C17.9843 10.5934 18.9026 10.1082 19.128 9.30176L19.6171 7.47973C19.6171 7.47973 19.5928 7.45512 19.5716 7.43512ZM18.1263 10C17.6057 10 17.0228 10.2515 16.0439 10C15.0643 9.74789 13.8674 8.73547 13.9331 8.5L13.8147 7.83903L14.1907 7.19606C14.5989 7.50669 15.4715 8.35227 16.0439 8.5C16.443 8.60242 17.0566 8.78286 17.4193 8.78286C17.5972 8.78286 18.6469 8.5 19.1675 8L18.6469 9.5L18.1263 10ZM16.464 7.83903C15.9889 7.71637 15.1787 7.45302 14.9086 7.19606C14.7174 7.01434 14.4821 6.57336 14.4821 6.5C14.0763 6.09613 14.7426 5.81528 15.0027 5.74981C15.1598 5.70997 15.571 5.57404 15.7607 5.57404C16.0155 5.57404 16.8124 5.43008 17.0851 5.5C18.1073 5.76312 18.6921 6.3218 18.6469 6.5L19.1675 7.5C19.1141 7.67672 17.4875 8.10137 16.464 7.83903Z" fill="black"/>
<path d="M31.0687 32.9727L29.761 30.85L29.637 30.6436C29.5808 30.5502 29.4997 30.5893 29.4103 30.5366C28.9944 30.1689 28.3913 30.0536 27.6829 30.0536C27.6612 30.0536 27.6401 30.0536 27.6191 30.0536C26.7985 30.0536 25.8911 30.2008 25.0551 30.6645C23.398 31.5838 22.489 32.9992 22.7626 34.1688C22.7654 34.2698 22.7848 34.3445 22.8411 34.4384L24.2728 36.7015C24.649 37.3263 25.4063 37.59 26.3508 37.59C26.3725 37.59 26.3935 37.59 26.4146 37.59C27.2352 37.59 28.1426 37.4428 28.9786 36.9791C30.8835 35.9224 31.8018 34.1925 31.0687 32.9727ZM23.2832 34.09C22.9747 33.5766 23.5486 32.3088 24.845 31.59C25.4759 31.2398 26.3176 30.59 26.9039 30.59C26.6455 30.1463 29.0231 30.5366 28.6301 30.6654C29.1045 30.6654 29.1507 31.0132 29.1507 31.2469L29.5793 32C29.5793 32.9727 28.1613 33.1295 26.8652 33.8481C26.2195 34.2063 25.5661 34.401 24.9895 34.3833C24.5151 34.3759 23.4239 34.3243 23.2832 34.09ZM28.9786 36.09C28.3336 36.4482 27.4346 37.6345 26.3833 37.09C25.9088 37.0827 25.2474 36.7791 25.1069 36.5455L24.3009 35.59C24.1564 35.09 24.3733 35 25.3421 35.09C26.1627 35.09 26.5885 34.9015 27.4245 34.4384C28.3035 33.9508 29.634 33.643 30.0275 32.9727L30.5481 33.8481C30.8565 34.3615 30.2749 35.3712 28.9786 36.09Z" fill="black"/>
</g>
<defs>
<clipPath id="clip0_331_1719">
<rect width="41.648" height="40" fill="white" transform="translate(0.946289)"/>
</clipPath>
</defs>
</svg>
