<svg width="94" height="72" viewBox="0 0 94 72" fill="none" xmlns="http://www.w3.org/2000/svg">
<path d="M73.7328 21.1537L72.1104 19.4636C71.9657 19.3127 71.7703 19.2307 71.5644 19.2339C71.3601 19.2382 71.1662 19.3291 71.0274 19.4861L51.3791 42.0114L49.9471 42.0064C49.9471 42.0064 70.4208 19.8422 70.538 19.7134C70.6882 19.5473 70.7629 19.3207 70.7421 19.0922C70.7216 18.8638 70.6082 18.6562 70.4309 18.5222L68.6099 17.1487C68.3025 16.9169 67.8793 16.9602 67.6202 17.25L44.9828 42.0081C44.9828 42.0081 34.2779 42.0081 25.7378 42.0081C25.321 42.0081 25 42.2511 25 42.6892C25 47.5522 25.1306 51.2153 26.819 54.0712C28.2306 56.4585 30.5921 58.2578 35.2877 60.4469C34.7914 61.0792 34.4838 62.0623 34.4838 63.2067C34.4838 63.6449 34.8216 64 35.2383 64H53.6405C54.0572 64 54.395 63.6449 54.395 63.2067C54.395 62.1742 54.1448 61.2735 53.7315 60.6429C58.667 58.3706 61.6288 56.0681 63.2553 53.2622C64.9931 50.2638 65.1346 46.7622 65.1346 42.8265C65.1346 42.3884 64.7968 42.0332 64.38 42.0332C63.7985 42.0332 58.5883 42.0067 56.2491 41.9973C67.3987 29.7343 73.6713 22.3475 73.7411 22.2723C74.0313 21.9604 74.0277 21.4607 73.7328 21.1537ZM68.267 18.8431L68.846 19.2798C66.2947 22.0923 47.8328 42.009 47.8328 42.009L47.0602 42.0078L68.267 18.8431ZM61.9664 52.4368C60.3938 55.1503 57.3175 57.3891 51.993 59.6962H49.09C48.6732 59.6962 48.3354 60.0516 48.3354 60.4895C48.3354 60.9276 48.6732 61.2827 49.09 61.2827H52.2096C52.3424 61.2827 52.6671 61.6689 52.8126 62.4137H36.066C36.212 61.6689 36.5366 61.2827 36.6694 61.2827H43.9018C44.3186 61.2827 44.6564 60.9276 44.6564 60.4895C44.6564 60.0516 44.3186 59.6962 43.9018 59.6962H37.4494C32.0804 57.343 29.4589 55.5308 28.1004 53.2336C26.8158 51.0613 26.5359 48.3067 26.5109 43.4827C33.1958 43.4853 57.4829 43.593 61.9731 43.6059C62.0153 43.6136 62.0592 43.619 62.1039 43.619C62.6011 43.6195 63.107 43.6197 63.623 43.6197C63.6013 47.087 63.3957 49.9712 61.9664 52.4368ZM54.1596 42.0095L53.4448 42.0078L71.6015 21.1664L72.1388 21.7263C70.2744 23.7349 54.1596 42.0095 54.1596 42.0095Z" fill="#B03A1D"/>
<rect x="0.5" y="0.5" width="92.2942" height="71" rx="5.5" stroke="#B03A1D"/>
</svg>
