<svg width="33" height="27" viewBox="0 0 33 27" fill="none" xmlns="http://www.w3.org/2000/svg">
<path d="M16.5 13.4312H1C1 20.1893 10.7164 26.0001 10.7164 26.0001H16.5" stroke="black" stroke-width="1.25" stroke-linecap="round" stroke-linejoin="round"/>
<path d="M5.51147 14.9751C5.51147 19.9562 11.9023 23.6315 11.9023 23.6315" stroke="black" stroke-width="1.25" stroke-linecap="round" stroke-linejoin="round"/>
<path d="M16.5 13.4312H32C32 20.1893 22.2836 26.0001 22.2836 26.0001H16.5" stroke="black" stroke-width="1.25" stroke-linecap="round" stroke-linejoin="round"/>
<path d="M8.19983 13.4312C7.07202 9.7357 14.6127 7.19526 21.3794 6.41066L22.0407 5.34424L24.7083 8.18227L23.2444 8.39105C22.5287 10.4508 18.9423 13.4312 18.9423 13.4312" stroke="black" stroke-width="1.25" stroke-linecap="round" stroke-linejoin="round"/>
<path d="M9.38647 13.4308C9.62802 11.5281 12.1487 9.38733 21.7634 6.81689" stroke="black" stroke-width="1.25" stroke-linecap="round" stroke-linejoin="round"/>
<path d="M22.011 7.08105C18.3746 8.67563 14.1354 10.5076 11.1641 13.4311" stroke="black" stroke-width="1.25" stroke-linecap="round" stroke-linejoin="round"/>
<path d="M22.7212 7.83447C18.9431 12.3268 16.5 13.431 16.5 13.431" stroke="black" stroke-width="1.25" stroke-linecap="round" stroke-linejoin="round"/>
<path d="M14.4088 13.431C16.6874 12.2652 22.3596 7.45117 22.3596 7.45117" stroke="black" stroke-width="1.25" stroke-linecap="round" stroke-linejoin="round"/>
<path d="M24.1045 7.55333L30.934 2.7091C31.4055 2.37462 31.478 1.76896 31.0959 1.3563C30.7137 0.94358 30.0217 0.880146 29.5503 1.21462L22.7208 6.05885" stroke="black" stroke-width="1.25" stroke-linecap="round" stroke-linejoin="round"/>
</svg>
