<svg width="97" height="82" viewBox="0 0 97 82" fill="none" xmlns="http://www.w3.org/2000/svg">
<path d="M83.5278 65.893H63.5119C55.2208 65.893 48.5 72.3549 48.5 80.3266V32.2144C48.5 18.6062 48.5 11.8021 52.897 7.57457C57.294 3.34705 64.3706 3.34705 78.5238 3.34705H83.5278C88.2455 3.34705 90.6044 3.34705 92.0701 4.75621C93.5357 6.16541 93.5357 8.43343 93.5357 12.9695V56.2705C93.5357 60.8065 93.5357 63.0746 92.0701 64.4838C90.6044 65.893 88.2455 65.893 83.5278 65.893Z" stroke="#B03A1D"/>
<path d="M13.1354 66.2416H33.3438C41.7145 66.2416 48.5 72.7972 48.5 80.8844V32.0749C48.5 18.2695 48.5 11.3668 44.0607 7.07798C39.6215 2.78919 32.477 2.78918 18.1875 2.78918H13.1354C8.37226 2.78918 5.99071 2.78918 4.51096 4.21877C3.03125 5.6484 3.03125 7.94928 3.03125 12.5511V56.4797C3.03125 61.0814 3.03125 63.3823 4.51096 64.8119C5.99071 66.2416 8.37226 66.2416 13.1354 66.2416Z" stroke="#B03A1D"/>
<path d="M70.4546 26.2152H70.3895C70.2829 26.2209 70.1823 26.2346 70.0875 26.2638C69.8389 26.3381 69.6494 26.4834 69.5192 26.8066L68.6607 29.0717L70.6618 29.8004L71.6328 27.5736C71.763 27.2505 71.7275 27.0222 71.5972 26.8129C71.467 26.5955 71.2243 26.4102 70.9342 26.3055C70.7802 26.2483 70.6145 26.218 70.4546 26.2146V26.2152ZM68.2996 30.0326L60.2958 51.1504L61.2336 51.4878L70.2533 30.7436L68.2996 30.0326ZM79.5365 30.6961C79.2819 30.7076 79.057 30.8019 78.8379 31.0793L77.3874 33.0584L79.1221 34.2482L80.6673 32.3377C80.8864 32.0632 80.9101 31.8286 80.8449 31.5999C80.7739 31.3539 80.5963 31.1194 80.3417 30.9478C80.1226 30.7951 79.8681 30.707 79.6372 30.6961H79.5365ZM76.7717 33.8935L63.2495 52.3286L64.0606 52.8835L78.4649 35.0604L76.7717 33.8935Z" fill="#B03A1D"/>
<path d="M33.7 35.5254C33.7093 35.2157 33.8256 34.9229 34.0284 34.6984C34.2313 34.4738 34.5078 34.3318 34.8096 34.2971C35.1683 34.2559 35.509 34.1272 35.803 33.9217C36.097 33.7163 36.3357 33.4402 36.4989 33.1168C36.6621 32.7933 36.7451 32.432 36.7408 32.0632C36.7365 31.6944 36.6451 31.329 36.4742 30.9979C36.3309 30.72 36.2864 30.403 36.3485 30.1023C36.4106 29.8017 36.5753 29.5364 36.8139 29.3529C37.0983 29.1339 37.3244 28.8466 37.4731 28.5154C37.6218 28.1842 37.6887 27.8187 37.6682 27.4497C37.6477 27.0807 37.5404 26.7191 37.3554 26.3954C37.1703 26.0716 36.9129 25.7952 36.6049 25.5895C36.3467 25.4163 36.1533 25.1583 36.0586 24.8607C35.9639 24.563 35.974 24.2446 36.0869 23.961C36.2175 23.6224 36.2656 23.2541 36.2272 22.8869C36.1889 22.5197 36.0652 22.164 35.8665 21.8495C35.6677 21.535 35.3997 21.2708 35.0846 21.0787C34.7695 20.8866 34.4165 20.7723 34.0548 20.7452C33.7509 20.7241 33.4603 20.5952 33.2336 20.381C33.007 20.1669 32.8588 19.8811 32.8149 19.5737C32.7618 19.2071 32.6233 18.8559 32.411 18.5496C32.1987 18.2434 31.9189 17.9909 31.5951 17.8137C31.2713 17.6364 30.9131 17.5395 30.5505 17.5312C30.188 17.5228 29.8318 17.6031 29.5119 17.7655C29.2436 17.9018 28.9334 17.9362 28.6355 17.8626C28.3376 17.789 28.0711 17.6122 27.8823 17.3629C27.6551 17.069 27.3643 16.832 27.0339 16.6714C26.7034 16.5107 26.3428 16.4312 25.9819 16.4392C25.621 16.4473 25.2701 16.5427 24.9582 16.7177C24.6464 16.8926 24.3826 17.1421 24.1885 17.4454C24.1154 17.5593 24.0244 17.66 23.9191 17.7436C23.8169 17.4201 23.6472 17.1207 23.4219 16.8664C23.1966 16.6121 22.9212 16.409 22.6147 16.2713C22.3083 16.1336 21.9784 16.0646 21.6479 16.0692C21.3174 16.0737 20.9943 16.1517 20.7013 16.2976C20.4329 16.4339 20.1227 16.4683 19.8249 16.3947C19.527 16.3211 19.2604 16.1443 19.0716 15.8951C18.8445 15.6012 18.5537 15.3641 18.2232 15.2035C17.8928 15.0428 17.5322 14.9633 17.1712 14.9713C16.8103 14.9794 16.4594 15.0748 16.1476 15.2498C15.8358 15.4247 15.5719 15.6742 15.3779 15.9775C15.2164 16.2345 14.9694 16.4225 14.6798 16.5087C14.3903 16.5948 14.0767 16.5737 13.7937 16.4489C13.1965 16.0751 11.1083 16.2483 11.5832 17.2647C12.6067 18.8912 14.7729 22.3246 15.808 23.969C15.9336 24.1796 15.993 24.4226 15.9778 24.6642C15.9627 24.9057 15.8738 25.1339 15.7236 25.3171C15.5329 25.6434 15.4372 26.0206 15.4472 26.4062C15.4572 26.7918 15.5726 27.1706 15.7803 27.5003C15.9881 27.83 16.28 28.0974 16.6234 28.2726C16.9668 28.4479 17.3481 28.524 17.7246 28.4924C17.9545 28.4356 18.1986 28.4537 18.423 28.5442C18.6473 28.6346 18.8408 28.7929 18.9766 28.9972L23.2015 35.7014C23.9268 36.5736 24.962 34.7386 24.8894 34.0575C24.8987 33.7478 25.0149 33.455 25.2178 33.2305C25.4206 33.0059 25.6972 32.8639 25.999 32.8292C26.5243 32.7672 27.0051 32.5184 27.3573 32.1264C27.7095 31.7344 27.9107 31.224 27.9256 30.6846L32.0121 37.1693C32.7358 38.0393 33.7728 36.2101 33.7 35.5254ZM17.8384 27.4964C17.6287 27.5547 17.4045 27.5472 17.1946 27.4747C16.9848 27.4023 16.7989 27.2683 16.661 27.0899C16.523 26.9116 16.4393 26.6972 16.4207 26.4742C16.4021 26.2513 16.4494 26.0301 16.5565 25.8392C16.8002 25.5027 16.936 25.0958 16.9462 24.6715C16.9565 24.2472 16.8407 23.8252 16.6141 23.4604L14.515 20.1295C15.7852 19.4519 17.2521 19.2213 18.694 19.4725L18.4045 20.875C18.3803 21.0006 18.406 21.1326 18.4761 21.2423C18.5462 21.3521 18.6551 21.4309 18.7792 21.4615C18.9032 21.4921 19.0325 21.4722 19.1389 21.406C19.2454 21.3398 19.3204 21.2327 19.3478 21.1079L19.637 19.7066C21.0388 20.1544 22.2737 21.052 23.1529 22.2623L21.9643 23.0124C21.8575 23.0798 21.7828 23.1886 21.7567 23.3149C21.7307 23.4412 21.7554 23.5746 21.8254 23.6857C21.8954 23.7968 22.005 23.8766 22.1301 23.9075C22.2552 23.9384 22.3856 23.9178 22.4924 23.8504L23.681 23.1004C24.3935 24.4159 24.6708 25.9179 24.4705 27.3766L23.0822 27.0339C22.9578 27.0048 22.8289 27.0264 22.7233 27.094C22.6178 27.1616 22.5441 27.2697 22.5182 27.3949C22.4924 27.5202 22.5165 27.6524 22.5852 27.763C22.654 27.8737 22.762 27.9538 22.8857 27.986L24.2751 28.329C23.8802 29.7393 23.0401 30.9645 21.8817 31.8194L19.7827 28.4885C19.5758 28.158 19.284 27.8898 18.9404 27.7145C18.5968 27.5391 18.215 27.4636 17.8384 27.4964ZM23.9266 33.9861C23.9199 34.2429 23.8389 34.4894 23.6936 34.6948L22.4149 32.6656C23.9029 31.5702 24.9379 29.9555 25.3329 28.1135C25.3407 28.1001 25.3439 28.0844 25.3422 28.0687C25.7388 26.0567 25.3372 23.9393 24.2237 22.1723C23.1102 20.4053 21.3739 19.1301 19.3886 18.6212C19.3752 18.6128 19.3597 18.609 19.3443 18.6102C17.5129 18.1732 15.6109 18.4118 13.9817 19.2831L12.7032 17.2543C12.9517 17.2122 13.2094 17.2455 13.4446 17.3501C13.9371 17.5652 14.4822 17.6002 14.9851 17.449C15.4879 17.2979 15.9166 16.9702 16.1964 16.523C16.3076 16.3486 16.459 16.2051 16.638 16.1046C16.8171 16.004 17.0186 15.9492 17.2259 15.9447C17.4332 15.9402 17.6403 15.9862 17.8299 16.0788C18.0196 16.1714 18.1863 16.3079 18.3163 16.4771C18.6452 16.9113 19.1097 17.2193 19.6286 17.3474C20.1475 17.4755 20.6879 17.4155 21.1554 17.1779C21.3385 17.0833 21.5431 17.0364 21.7515 17.0412C21.9598 17.046 22.1656 17.1024 22.351 17.2056C23.1281 17.5652 22.9693 18.5044 23.3876 19.124C23.5511 19.3897 23.7639 19.6213 24.0137 19.8054C24.2634 19.9895 24.545 20.1222 24.8421 20.196C25.151 20.2687 25.4839 20.2498 25.7665 20.4241C26.0722 20.6014 26.3026 20.8899 26.4094 21.2291C26.4978 21.5202 26.4866 21.8299 26.3777 22.1068C26.1829 22.6007 26.1672 23.1545 26.3333 23.6717C26.4993 24.1889 26.8367 24.6366 27.2864 24.9367C27.4619 25.0558 27.6082 25.2149 27.7134 25.4006C27.8185 25.5863 27.8794 25.7934 27.891 26.0046C27.9026 26.2158 27.8645 26.425 27.7799 26.6148C27.6953 26.8046 27.5667 26.9696 27.4047 27.096C27.0411 27.3806 26.7759 27.7749 26.6448 28.2257C26.5137 28.6765 26.5231 29.1621 26.6717 29.6171C26.8991 30.1178 27.1184 30.6663 26.828 31.1779C26.7352 31.3647 26.5981 31.524 26.4287 31.6421C26.2593 31.7602 26.0627 31.8334 25.8559 31.8554C25.3322 31.9161 24.8523 32.1625 24.4998 32.5519C24.1473 32.9412 23.9445 33.4487 23.9266 33.9861ZM27.9867 21.0402C29.5745 21.4224 30.9891 22.3802 31.9616 23.7315L30.775 24.4803C30.6681 24.5477 30.5934 24.6565 30.5674 24.7828C30.5413 24.9091 30.566 25.0425 30.636 25.1536C30.7061 25.2647 30.8157 25.3445 30.9408 25.3754C31.0659 25.4063 31.1962 25.3857 31.3031 25.3183L32.4917 24.5683C33.2041 25.8838 33.4814 27.3857 33.2811 28.8445L31.8928 28.5017C31.7685 28.4727 31.6395 28.4943 31.534 28.5619C31.4284 28.6295 31.3547 28.7376 31.3289 28.8628C31.303 28.9881 31.3271 29.1203 31.3959 29.2309C31.4647 29.3416 31.5726 29.4217 31.6963 29.4539L33.0857 29.7969C32.6909 31.2072 31.8508 32.4324 30.6923 33.2873L28.5933 29.9564C28.3401 29.5554 27.9638 29.2488 27.5256 29.0866C27.4966 28.858 27.5253 28.6276 27.6089 28.4173C27.6925 28.207 27.8282 28.0238 28.0033 27.885C28.4495 27.5386 28.7449 27.029 28.8304 26.4581C28.916 25.8872 28.7854 25.2971 28.4648 24.8055C28.225 24.3754 27.7633 24.1639 27.4559 23.8001C27.0563 23.3132 27.1857 22.6843 27.3784 22.1424C27.465 21.7359 27.4421 21.3095 27.312 20.9076C27.5383 20.9403 27.764 20.9846 27.9867 21.0402ZM31.2256 34.1335C32.7135 33.0381 33.7486 31.4234 34.1436 29.5814C34.1514 29.568 34.1546 29.5523 34.1528 29.5366C34.3779 28.4082 34.3529 27.2344 34.0795 26.0995C33.806 24.9645 33.291 23.8966 32.5714 22.9723C31.8517 22.0479 30.9453 21.2901 29.9171 20.7532C28.8889 20.2163 27.7644 19.9136 26.6243 19.8668C26.3253 19.6008 25.9662 19.4159 25.582 19.3302C25.3329 19.335 25.084 19.2823 24.8539 19.176C24.6238 19.0697 24.4187 18.9126 24.2538 18.7164C24.5598 18.5407 24.8179 18.2921 25.0069 17.991C25.1181 17.8166 25.2695 17.6731 25.4485 17.5725C25.6276 17.4719 25.8291 17.417 26.0365 17.4125C26.2438 17.4081 26.4509 17.454 26.6405 17.5466C26.8302 17.6392 26.997 17.7758 27.1269 17.945C27.4559 18.3791 27.9203 18.6872 28.4393 18.8153C28.9582 18.9433 29.4986 18.8834 29.966 18.6458C30.15 18.5541 30.3544 18.5092 30.5622 18.5148C30.7699 18.5205 30.9751 18.5765 31.1605 18.6782C31.346 18.7799 31.5064 18.9245 31.6285 19.0997C31.7505 19.275 31.8306 19.4759 31.8621 19.6859C31.9398 20.2217 32.1992 20.7193 32.595 21.0918C32.9908 21.4643 33.4978 21.688 34.0276 21.7239C34.2354 21.7399 34.4381 21.8062 34.6189 21.917C34.7997 22.0279 34.9532 22.1802 35.0668 22.3614C35.1804 22.5425 35.2507 22.7471 35.2718 22.9582C35.293 23.1692 35.2643 23.3807 35.1884 23.5748C34.9937 24.0688 34.9781 24.6225 35.1442 25.1397C35.3102 25.6568 35.6475 26.1045 36.0971 26.4048C36.2737 26.523 36.4211 26.6817 36.5271 26.8675C36.6331 27.0533 36.6944 27.2608 36.706 27.4725C36.7176 27.6841 36.6791 27.8938 36.5937 28.0837C36.5083 28.2737 36.3786 28.4383 36.2154 28.5639C35.7997 28.8837 35.5128 29.3458 35.4047 29.8695C35.2967 30.3933 35.3743 30.9454 35.624 31.4294C35.7207 31.6199 35.772 31.8295 35.7737 32.0408C35.7754 32.2521 35.7274 32.4591 35.6337 32.6444C35.54 32.8297 35.4034 32.988 35.2351 33.1061C35.0669 33.2242 34.8719 33.2987 34.6665 33.3233C34.1427 33.3841 33.6628 33.6306 33.3103 34.0199C32.9578 34.4093 32.7551 34.9168 32.7373 35.4543L32.737 35.4591C32.7296 35.7141 32.6487 35.9587 32.5043 36.1627L31.2256 34.1335Z" fill="#B03A1D"/>
</svg>
