<svg width="47" height="35" viewBox="0 0 47 35" fill="none" xmlns="http://www.w3.org/2000/svg">
<path d="M20.12 1.79688C10.1981 1.79688 2.12646 8.9237 2.12646 17.6848C2.12646 26.4452 10.1981 33.5721 20.12 33.5721C30.0425 33.5721 38.1142 26.4452 38.1142 17.6848C38.1135 8.9237 30.0418 1.79688 20.12 1.79688ZM20.12 33.2415C10.4044 33.2415 2.50007 26.2624 2.50007 17.684C2.50007 9.10566 10.4044 2.12602 20.12 2.12602C29.8356 2.12602 37.7406 9.10566 37.7406 17.684C37.7406 26.2624 29.8356 33.2415 20.12 33.2415Z" fill="black"/>
<path d="M20.1499 0C20.1236 0 20.0959 0 20.0695 0C9.14086 0.0389794 0.285773 7.92154 0.329261 17.571C0.350346 22.2456 2.4325 26.6328 6.19092 29.9245C9.93024 33.1994 14.8826 35 20.1466 35C20.1743 35 20.202 35 20.2297 35C31.1583 34.9616 40.0134 27.0796 39.9699 17.4296C39.9251 7.80402 31.0424 0 20.1499 0ZM20.227 34.4229C20.2 34.4229 20.1737 34.4229 20.1466 34.4229C15.0572 34.4229 10.2676 32.6816 6.65216 29.5144C3.01695 26.3314 1.00398 22.0885 0.9829 17.5686C0.94073 8.23745 9.50392 0.614944 20.0722 0.577128C20.0985 0.577128 20.1236 0.577128 20.1499 0.577128C30.682 0.577128 39.2728 8.124 39.3163 17.4319C39.3585 26.7631 30.7953 34.3851 20.227 34.4229Z" fill="black"/>
<path d="M23.6427 25.9139L23.9602 25.4607C23.9886 25.4205 24.235 25.0552 24.235 24.5898C24.235 24.1243 23.9886 23.759 23.9602 23.7188L23.6427 23.2656L23.3251 23.7188C23.2967 23.759 23.0503 24.1243 23.0503 24.5898C23.0503 25.0552 23.2967 25.4205 23.3251 25.4607L23.6427 25.9139ZM23.6427 23.8922C23.6427 23.8922 23.8614 24.2046 23.8614 24.5898C23.8614 24.9749 23.6427 25.2873 23.6427 25.2873C23.6427 25.2873 23.4239 24.9749 23.4239 24.5898C23.4239 24.2046 23.6427 23.8922 23.6427 23.8922Z" fill="black"/>
<path d="M25.0414 26.804C24.6684 26.4747 24.2019 26.3705 24.1499 26.3595L23.717 26.2693L23.7255 26.2373L23.6438 26.2542L23.5621 26.2373L23.5707 26.2693L23.1378 26.3595C23.0857 26.3705 22.6186 26.4747 22.2463 26.804C21.8733 27.1332 21.7554 27.5452 21.7429 27.5911L21.6045 28.1101L22.1922 27.9879C22.2443 27.9768 22.7115 27.8727 23.0837 27.5434C23.4567 27.2141 23.5746 26.8022 23.5872 26.7563L23.6438 26.5433L23.7005 26.7563C23.713 26.8022 23.8309 27.2147 24.2039 27.5434C24.5768 27.8721 25.0433 27.9768 25.0954 27.9879L25.6831 28.1101L25.5448 27.5911C25.5323 27.5457 25.4143 27.1332 25.0414 26.804ZM22.8195 27.3107C22.5112 27.583 22.1066 27.6673 22.1066 27.6673C22.1066 27.6673 22.2021 27.3101 22.5105 27.0378C22.8189 26.7656 23.2234 26.6812 23.2234 26.6812C23.2234 26.6812 23.1279 27.0384 22.8195 27.3107ZM24.4681 27.3107C24.1597 27.0384 24.0642 26.6812 24.0642 26.6812C24.0642 26.6812 24.4688 26.7656 24.7771 27.0378C25.0855 27.3101 25.1811 27.6673 25.1811 27.6673C25.1811 27.6673 24.7765 27.583 24.4681 27.3107Z" fill="black"/>
<path d="M22.7365 26.184C22.8848 26.184 22.9797 26.1706 22.9797 26.1706L23.5694 26.0869L23.2294 25.6552C23.1984 25.6168 22.9151 25.2729 22.4301 25.0897C22.1395 24.9803 21.8503 24.957 21.6585 24.957C21.5103 24.957 21.4154 24.9704 21.4154 24.9704L20.8257 25.0542L21.1657 25.4859C21.1966 25.5243 21.48 25.8681 21.9649 26.0514C22.2549 26.1607 22.5448 26.184 22.7365 26.184ZM21.4714 25.2962C21.4714 25.2962 21.5446 25.2863 21.6585 25.2863C21.816 25.2863 22.0513 25.3049 22.2838 25.3922C22.6851 25.5435 22.9243 25.8437 22.9243 25.8437C22.9243 25.8437 22.8512 25.8536 22.7372 25.8536C22.5797 25.8536 22.3445 25.8349 22.1119 25.7477C21.7106 25.597 21.4714 25.2962 21.4714 25.2962Z" fill="black"/>
<path d="M25.6295 24.957C25.4377 24.957 25.1485 24.9803 24.8579 25.0897C24.3729 25.2724 24.0896 25.6162 24.0586 25.6552L23.7153 26.0863L24.3084 26.1706C24.3084 26.1706 24.4032 26.184 24.5515 26.184C24.7432 26.184 25.0325 26.1607 25.3231 26.0514C25.808 25.8687 26.0914 25.5249 26.1223 25.4859L26.4656 25.0548L25.8726 24.9704C25.8726 24.9704 25.7777 24.957 25.6295 24.957ZM25.1761 25.7483C24.9442 25.8361 24.7083 25.8541 24.5515 25.8541C24.4368 25.8541 24.3644 25.8442 24.3644 25.8442C24.3644 25.8442 24.6035 25.544 25.0048 25.3928C25.2368 25.3049 25.4726 25.2869 25.6295 25.2869C25.7441 25.2869 25.8166 25.2968 25.8166 25.2968C25.8166 25.2968 25.5774 25.597 25.1761 25.7483Z" fill="black"/>
<path d="M10.7089 19.9127C10.7662 19.7172 10.5962 19.5444 10.4012 19.4595C10.3643 19.4443 10.3267 19.4298 10.2885 19.4152C10.1943 19.3803 10.1066 19.3478 10.0572 19.2931C9.9966 19.2262 10.0085 19.1092 10.0803 19.0522C10.1528 18.9952 10.4908 19.143 10.5863 19.0702C10.6924 18.9894 10.4987 18.5455 10.6871 18.4873C10.8756 18.4291 10.9276 18.8055 11.1115 18.7613C11.2953 18.7171 11.1655 18.3674 11.2953 18.3541C11.4258 18.3401 11.375 18.5047 11.4034 18.5443C11.4897 18.6682 11.694 18.7375 11.8501 18.695C11.9621 18.6647 11.972 18.4821 11.972 18.4821C11.9951 17.4849 11.9384 16.4819 11.8033 15.4998C11.7948 15.4358 11.7822 15.3387 11.7117 15.259C11.605 15.1362 11.4212 15.1007 11.1655 15.1537C10.6212 15.2666 10.0809 15.4975 9.4642 15.8809C8.89424 16.2341 8.46397 16.5936 8.15099 16.9787C7.38666 17.9189 7.216 19.1086 7.06577 20.1588C6.99592 20.648 7.13166 20.9721 7.44925 21.0716C7.51448 21.0919 7.57906 21.1001 7.64363 21.1001C7.76092 21.1001 7.87623 21.0733 7.98692 21.0436C8.81715 20.8249 9.62959 20.5369 10.4018 20.1878C10.4921 20.1464 10.6614 20.0696 10.7089 19.9127ZM7.90522 20.8061C7.77805 20.8399 7.64429 20.8701 7.54216 20.8381C7.28914 20.759 7.31813 20.3582 7.34251 20.1889C7.48879 19.1684 7.65483 18.0118 8.37766 17.1223C8.67219 16.7604 9.08005 16.4201 9.62431 16.0826C10.2114 15.7184 10.7207 15.4997 11.2288 15.3938C11.2848 15.3822 11.3335 15.3769 11.3744 15.3769C11.431 15.3769 11.4706 15.388 11.4903 15.4095C11.5108 15.4334 11.518 15.477 11.5253 15.5282C11.6571 16.4899 11.7131 17.4719 11.692 18.4482C11.6715 18.44 11.6518 18.429 11.6419 18.4138C11.6195 18.3818 11.601 18.3464 11.5826 18.3103C11.5259 18.2015 11.2894 17.9426 11.1622 17.9804C11.035 18.0182 10.9678 18.4104 10.9678 18.4104C10.927 18.3475 10.8703 18.2765 10.7669 18.2504C10.6799 18.2283 10.5955 18.244 10.5264 18.2946C10.413 18.3778 10.3735 18.5302 10.384 18.6378L10.3886 18.6751C10.3933 18.7123 10.3992 18.7577 10.3985 18.7955C10.2325 18.7362 10.0315 18.7594 9.89447 18.8665C9.71129 19.0108 9.68493 19.276 9.8378 19.4465C9.93137 19.5501 10.0625 19.5995 10.1791 19.6426C10.2127 19.6548 10.2463 19.6676 10.2773 19.681C10.3689 19.7205 10.4539 19.7944 10.4368 19.8497C10.4242 19.8939 10.3471 19.934 10.2733 19.9672C9.51625 20.3093 8.72029 20.5915 7.90522 20.8061Z" fill="black"/>
<path d="M13.3334 19.1431C13.371 19.1157 13.4072 19.0855 13.4434 19.0558C13.5357 18.9808 13.622 18.9092 13.711 18.8865C13.7571 18.8743 13.8072 18.8801 13.8507 18.9051C13.8955 18.9301 13.9264 18.9726 13.9357 19.0203C13.9561 19.1349 13.6708 19.2938 13.6517 19.3612C13.5739 19.6359 13.8935 19.7342 14.0272 19.7772L14.0655 19.7894C14.1103 19.8046 14.157 19.8476 14.1603 19.9105C14.1439 19.9273 14.0997 19.932 14.0365 19.9372C13.9383 19.9454 13.6648 19.9803 13.6622 20.1554C13.6609 20.2438 14.0088 20.5597 14.0088 20.5597C13.9679 20.5673 13.9185 20.5684 13.8579 20.5696C13.7979 20.5708 13.7386 20.5725 13.6807 20.5807C13.4883 20.608 13.3202 20.7878 13.2985 20.9315C13.2833 21.0321 13.4612 21.1089 13.4612 21.1089C14.4746 21.6029 15.5441 22.0241 16.6411 22.3632C16.6939 22.379 16.765 22.4011 16.8474 22.4011C16.879 22.4011 16.912 22.3976 16.9456 22.3894C17.1195 22.3475 17.25 22.198 17.3337 21.9449C17.5228 21.3731 17.5887 20.7488 17.5412 19.9803C17.4977 19.2653 17.3692 18.6841 17.1498 18.2041C16.6115 17.0248 15.4762 16.2947 14.474 15.6501C14.0048 15.3481 13.5937 15.3214 13.3176 15.5744C13.1674 15.7117 13.1081 15.8985 13.0586 16.0783C12.8162 16.9765 12.6554 17.8911 12.579 18.7963C12.5697 18.9005 12.5546 19.0942 12.6897 19.2129C12.8669 19.3653 13.139 19.2874 13.3334 19.1431ZM12.8603 18.8155C12.9348 17.9237 13.0936 17.0225 13.3334 16.1364C13.3743 15.984 13.4197 15.8397 13.5212 15.7472C13.7347 15.5517 14.0688 15.6954 14.3106 15.8514C15.2818 16.4762 16.3828 17.1842 16.8909 18.2972C17.0984 18.7521 17.2203 19.3071 17.2625 19.9948C17.3073 20.7343 17.2447 21.3323 17.0648 21.8763C17.0128 22.034 16.9416 22.134 16.8718 22.1515C16.8362 22.159 16.7874 22.1462 16.7334 22.1299C15.6567 21.7972 14.6071 21.3841 13.6121 20.9001C13.6431 20.8646 13.6866 20.8308 13.7241 20.8256C13.769 20.8192 13.8164 20.8186 13.8632 20.818C14.0055 20.8151 14.3824 20.6976 14.3995 20.6074C14.4167 20.5172 14.0378 20.1862 14.0378 20.1862C14.045 20.1856 14.0523 20.1851 14.0602 20.1845C14.1524 20.1769 14.2783 20.167 14.3705 20.0739C14.4391 20.0041 14.4641 19.9157 14.4384 19.8243C14.4061 19.7103 14.2967 19.6039 14.1656 19.5596L14.1241 19.5463C14.0569 19.5241 14.0095 19.5073 13.9785 19.4892C14.1439 19.3706 14.2447 19.164 14.2124 18.9819C14.1907 18.8638 14.1136 18.7597 14.0009 18.6969C13.8915 18.6358 13.7577 18.6189 13.6339 18.6497C13.4803 18.6887 13.365 18.7835 13.253 18.876C13.2194 18.9034 13.1865 18.9301 13.1535 18.9557C13.0382 19.0407 12.9216 19.068 12.8893 19.0389C12.8452 18.9994 12.8564 18.8662 12.8603 18.8155Z" fill="black"/>
<path d="M14.5513 24.365C15.0224 24.24 15.2544 23.9892 15.1898 23.678C15.1549 23.5087 15.0369 23.3702 14.919 23.2422C14.3306 22.604 13.6914 22.0082 13.0187 21.4701C12.9396 21.4067 12.7979 21.2828 12.622 21.3078C12.4296 21.3299 12.3163 21.5126 12.3413 21.7598C12.3453 21.7982 12.3512 21.8378 12.3565 21.8768C12.3703 21.9722 12.3848 22.0624 12.3604 22.1264C12.3466 22.1624 12.3183 22.1793 12.2959 22.1869C12.2596 22.1985 12.2214 22.195 12.1838 22.1764C12.089 22.1293 12.0409 21.9792 12.0402 21.9C12.0395 21.8209 11.9835 21.7726 11.9835 21.7726C11.7997 21.6592 11.6178 21.7656 11.4907 21.8395C11.4656 21.8541 11.4182 21.8896 11.3819 21.8343C11.3773 21.8186 11.3938 21.7924 11.4188 21.7528C11.4617 21.6865 11.5164 21.5678 11.4643 21.4608C11.4123 21.3537 10.9523 21.3811 10.9523 21.3811C10.9662 21.3578 10.9853 21.3316 11.0083 21.3008C11.0367 21.263 11.065 21.2246 11.0868 21.1839C11.1645 21.0413 11.0993 20.8325 10.9892 20.7405C10.9121 20.6771 10.7527 20.751 10.7527 20.751C9.87304 21.1042 9.02305 21.5312 8.22709 22.0193C8.17437 22.0513 8.08674 22.1042 8.04852 22.2026C7.99515 22.3364 8.0472 22.4964 8.20864 22.6901C8.56577 23.1171 9.02371 23.4982 9.65099 23.888C10.2328 24.2504 10.752 24.4884 11.2376 24.6164C11.5954 24.71 11.9512 24.7479 12.2991 24.7479C13.1155 24.7483 13.8898 24.5412 14.5513 24.365ZM9.81176 23.6865C9.21018 23.3125 8.772 22.9494 8.43332 22.5445C8.29232 22.3752 8.30484 22.3036 8.31208 22.285C8.31999 22.2653 8.34964 22.2461 8.38522 22.2245C9.15813 21.751 9.98045 21.3361 10.8324 20.9917C10.8416 21.0249 10.8443 21.0598 10.8344 21.0784C10.8179 21.1087 10.7955 21.1372 10.7744 21.1651C10.7059 21.2559 10.5135 21.5252 10.6782 21.6259C10.7639 21.6782 11.1744 21.6334 11.1744 21.6334C11.1342 21.6957 11.0795 21.7818 11.1092 21.8917C11.1322 21.979 11.1975 22.0459 11.2923 22.0791C11.4037 22.1181 11.5407 22.1064 11.6435 22.0477L11.6745 22.029C11.7107 22.0081 11.7378 21.993 11.7582 21.9837C11.7766 22.1477 11.888 22.3135 12.0468 22.3921C12.1575 22.4473 12.2847 22.4561 12.396 22.4171C12.5041 22.381 12.5871 22.3031 12.6247 22.2053C12.6701 22.0872 12.6517 21.9633 12.6339 21.844C12.6279 21.8086 12.6227 21.7736 12.62 21.7387C12.6088 21.6282 12.6424 21.5607 12.6583 21.5532C12.6668 21.5526 12.7149 21.5607 12.8296 21.6532C13.4918 22.1832 14.1217 22.7702 14.7009 23.398C14.7997 23.5056 14.8906 23.6109 14.9137 23.7232C14.9605 23.9483 14.6982 24.0682 14.4696 24.1287C13.5148 24.3829 12.4342 24.6721 11.3174 24.3794C10.8614 24.2596 10.3692 24.0327 9.81176 23.6865Z" fill="black"/>
<path d="M14.796 17.6692C14.8645 17.5982 14.9416 17.5179 14.9739 17.4103C15.0121 17.2858 14.9706 17.1223 14.8197 17.0496C14.7558 17.0193 14.6787 17.01 14.5924 17.0188C14.2564 17.0554 14.0402 17.3329 13.9822 17.5744C13.9229 17.821 14.2076 18.2789 14.2076 18.2789L14.796 17.6692ZM14.2557 17.6256C14.2952 17.4621 14.4349 17.2852 14.6273 17.2643C14.6372 17.2631 14.6451 17.2625 14.653 17.2625C14.6688 17.2625 14.68 17.2648 14.6853 17.2672C14.6998 17.2747 14.7136 17.3102 14.7024 17.3469C14.686 17.401 14.6346 17.4539 14.5812 17.5092L14.2379 17.8641C14.2333 17.7832 14.2372 17.7029 14.2557 17.6256Z" fill="black"/>
<path d="M15.7681 19.1788C15.8616 19.173 15.9895 19.166 16.1035 19.109C16.23 19.045 16.3334 18.9036 16.2847 18.7576C16.2642 18.6971 16.2188 18.6424 16.1502 18.5941C15.8847 18.4103 15.5091 18.4679 15.2746 18.6017C15.0327 18.7378 14.8726 18.949 14.731 19.1357L15.7681 19.1788ZM15.4261 18.8094C15.517 18.7576 15.6343 18.7244 15.747 18.7244C15.8307 18.7244 15.9124 18.743 15.977 18.7878C16.0092 18.8105 16.0158 18.8251 16.0171 18.828C16.0218 18.8414 16.0013 18.8763 15.9658 18.8937C15.9124 18.9205 15.8366 18.9275 15.749 18.9321L15.2218 18.9659C15.2831 18.9059 15.3503 18.8524 15.4261 18.8094Z" fill="black"/>
<path d="M15.8383 20.2268C15.5543 20.1855 15.0542 20.4636 15.0542 20.4636L15.7764 20.9494C15.8561 21.0029 15.9549 21.0693 16.0801 21.092C16.1052 21.0966 16.1322 21.0995 16.1592 21.0995C16.2844 21.0995 16.4195 21.0483 16.4788 20.9355C16.5097 20.8773 16.517 20.8092 16.5005 20.7336C16.4485 20.4811 16.1757 20.2722 15.8383 20.2268ZM16.2251 20.8301C16.2172 20.8447 16.1776 20.8557 16.1361 20.8499C16.0729 20.8383 16.0083 20.7947 15.9457 20.7528L15.5247 20.47C15.6162 20.4607 15.7065 20.4596 15.7955 20.4712C15.9819 20.4968 16.1902 20.6102 16.2244 20.7784C16.2317 20.8127 16.2264 20.8278 16.2251 20.8301Z" fill="black"/>
<path d="M13.3903 23.8603C13.4582 23.9284 13.5649 23.979 13.675 23.979C13.7218 23.979 13.7705 23.9697 13.816 23.9482C13.8806 23.9185 13.9326 23.8679 13.9721 23.7986C14.1237 23.5304 13.984 23.2186 13.7896 23.0423C13.5913 22.8614 13.3231 22.7642 13.0879 22.6787L13.246 23.5857C13.273 23.6701 13.3066 23.7748 13.3903 23.8603ZM13.588 23.2145C13.7198 23.3338 13.8081 23.5351 13.7211 23.6881C13.7033 23.7201 13.6882 23.7277 13.6849 23.7294C13.6717 23.7341 13.6295 23.7259 13.6018 23.698C13.559 23.6544 13.5366 23.5851 13.5155 23.5188L13.3725 23.0685C13.4523 23.1098 13.5254 23.1575 13.588 23.2145Z" fill="black"/>
<path d="M11.2838 23.4559C11.2344 23.5327 11.1731 23.6275 11.1632 23.7398C11.152 23.8689 11.2271 24.0225 11.3912 24.0679C11.4222 24.0772 11.4551 24.0813 11.4887 24.0813C11.5309 24.0813 11.575 24.0743 11.6205 24.0609C11.9427 23.9696 12.0969 23.6618 12.1028 23.4151C12.1087 23.1603 11.9987 22.9253 11.9018 22.7188L11.2838 23.4559ZM11.5335 23.8265C11.5045 23.8352 11.4847 23.8358 11.4755 23.8329C11.4604 23.8288 11.4393 23.7956 11.4426 23.7584C11.4478 23.7014 11.4874 23.6391 11.5269 23.5786L11.7885 23.1737C11.8109 23.2522 11.8247 23.3314 11.8228 23.4105C11.8188 23.5775 11.7187 23.7742 11.5335 23.8265Z" fill="black"/>
<path d="M9.31165 22.617C9.18976 22.7217 9.15813 22.8811 9.23522 22.9969C9.27278 23.0516 9.33208 23.0946 9.41313 23.126C9.49351 23.1569 9.57588 23.1702 9.65692 23.1702C9.89149 23.1702 10.1182 23.0579 10.2592 22.923C10.4542 22.7356 10.5478 22.4959 10.6308 22.2842L9.61409 22.4738C9.52053 22.5023 9.40258 22.5384 9.31165 22.617ZM10.2051 22.5582C10.163 22.6298 10.1135 22.6972 10.0536 22.7554C9.9251 22.8788 9.70239 22.9678 9.52514 22.8985C9.48692 22.8846 9.4777 22.8718 9.47638 22.87C9.46716 22.8561 9.47902 22.8188 9.50801 22.7932C9.55347 22.7543 9.63123 22.731 9.70568 22.7083L10.2051 22.5582Z" fill="black"/>
<path d="M7.96563 19.1617C7.82528 19.1989 7.68955 19.3176 7.70141 19.4666C7.7047 19.53 7.73435 19.5916 7.79168 19.6545C7.93005 19.8057 8.13892 19.8645 8.34121 19.8645C8.44927 19.8645 8.55536 19.8476 8.6476 19.8185C8.91578 19.7324 9.12663 19.5573 9.31113 19.4026L8.30958 19.1576C8.2114 19.1454 8.08951 19.1291 7.96563 19.1617ZM8.55206 19.5864C8.37415 19.6446 8.13036 19.6318 8.00978 19.5003C7.98408 19.4718 7.98144 19.4584 7.98079 19.4526C7.98013 19.4386 8.0078 19.4096 8.04865 19.3985C8.07106 19.3921 8.09675 19.3898 8.12377 19.3898C8.16923 19.3898 8.21997 19.3968 8.26873 19.4026L8.79124 19.4724C8.71547 19.5201 8.6364 19.5597 8.55206 19.5864Z" fill="black"/>
<path d="M8.95397 18.3083C9.21358 18.4177 9.50086 18.4264 9.7552 18.434L9.24916 17.6328C9.19052 17.5613 9.11738 17.4728 9.00536 17.4193C8.87688 17.3582 8.68645 17.3542 8.57246 17.4676C8.52502 17.5147 8.49537 17.5776 8.48482 17.6555C8.4532 17.9103 8.64626 18.1786 8.95397 18.3083ZM8.78199 17.6317C8.78726 17.6264 8.79912 17.6229 8.8156 17.6229C8.83273 17.6229 8.85381 17.6264 8.87292 17.6357C8.92893 17.6625 8.97703 17.7207 9.02381 17.7771L9.33416 18.1541C9.24389 18.1402 9.15691 18.118 9.07587 18.0837C8.90455 18.0122 8.74312 17.851 8.76354 17.6829C8.76816 17.6474 8.7787 17.6346 8.78199 17.6317Z" fill="black"/>
<path d="M10.7287 17.5883L10.9508 16.6924C10.96 16.6051 10.9719 16.4963 10.9277 16.3899C10.8783 16.2683 10.7439 16.1496 10.568 16.1729C10.4961 16.1793 10.4263 16.2095 10.3611 16.2625C10.1094 16.4632 10.1127 16.7994 10.2227 17.0258C10.334 17.2602 10.5436 17.4347 10.7287 17.5883ZM10.5489 16.4459C10.5792 16.4214 10.595 16.4191 10.5996 16.4185C10.5996 16.4185 10.6002 16.4185 10.6009 16.4185C10.6167 16.4185 10.6497 16.4412 10.6642 16.475C10.6866 16.5291 10.678 16.6035 10.6714 16.6687L10.6213 17.1347C10.564 17.0707 10.5152 17.0026 10.4797 16.9299C10.4059 16.7762 10.4052 16.5609 10.5489 16.4459Z" fill="black"/>
<path d="M25.6365 19.6536L28.3551 19.251L32.4555 20.5955L32.553 20.3634L28.9099 19.169L30.405 18.9473L32.7995 19.8869L32.9128 19.6612L30.9058 18.8734L31.9679 18.7158L33.7944 19.4331L33.9078 19.2068L32.468 18.6419L34.8091 18.2951L34.7624 18.0508L25.5903 19.4092L25.6365 19.6536Z" fill="black"/>
<path d="M31.7463 10.8384C31.5018 10.7506 31.2475 10.7064 30.9885 10.6883C30.5095 10.067 29.9725 9.47474 29.3544 8.9331C28.034 7.77652 26.4803 6.91141 24.7981 6.33254C24.8343 5.95031 24.8356 5.56575 24.6775 5.20621C24.4508 4.69075 23.9151 4.30503 23.2437 4.17412C22.7271 4.07115 22.1565 4.11071 21.4422 4.29339C21.3098 4.32655 21.1727 4.35971 21.091 4.32539C21.0146 4.29165 20.9494 4.19623 20.894 4.10955C20.413 3.3573 19.3172 2.89711 18.1707 2.96693C16.9373 3.04081 15.9225 3.70405 15.456 4.74078C15.4369 4.78325 15.4224 4.82805 15.4092 4.87226C15.3901 4.93393 15.371 4.99211 15.3414 5.01596C15.3045 5.0468 15.2366 5.05669 15.1608 5.06134C14.9955 5.05029 14.8268 5.05378 14.6561 5.07123C14.0763 5.08927 13.6144 5.1905 13.2309 5.37376C12.6333 5.65883 12.261 6.15742 12.2346 6.70604C12.2201 7.00042 12.3058 7.28549 12.4244 7.56475C9.06262 9.5911 6.80388 12.9311 6.59567 16.7394C5.93676 17.6581 5.54932 18.7449 5.54932 19.9125C5.54932 22.644 7.64333 24.9437 10.4786 25.6297C12.9008 27.7799 16.2421 29.1198 19.9366 29.1198H19.992C20.3807 29.1186 20.7629 29.0936 21.1418 29.061C21.8508 29.5014 22.7126 29.7626 23.6436 29.7626C25.712 29.7626 27.4449 28.4833 27.8903 26.7746C29.8644 25.4772 31.4194 23.7156 32.3432 21.6677C32.5771 21.5915 32.813 21.5048 33.0516 21.3972C33.9576 20.9888 34.71 20.439 35.2253 19.8083C35.788 19.1218 36.1708 18.0985 35.5587 17.284C35.1429 16.7313 34.3957 16.4468 33.6505 16.2205C33.5115 16.1786 33.3612 16.1361 33.2057 16.0948C33.1464 15.6626 33.0509 15.2367 32.9251 14.8178C33.1866 14.2314 33.3125 13.6298 33.2868 13.0498C33.2499 12.2353 32.8262 11.2259 31.7463 10.8384ZM13.4088 5.66392C13.8074 5.47368 14.301 5.39281 14.9935 5.39456C15.0488 5.3963 15.1088 5.39572 15.1701 5.39281C16.1321 5.47077 16.9445 6.09037 17.0882 6.94035L17.4578 6.89148C17.3128 6.03452 16.5946 5.37885 15.684 5.14614C15.7222 5.0833 15.7506 5.01873 15.7684 4.96113C15.7789 4.92797 15.7888 4.89481 15.8033 4.86281C16.2217 3.9337 17.0934 3.36298 18.1958 3.29665C19.2 3.23789 20.1567 3.62827 20.5685 4.2723C20.6364 4.37935 20.728 4.48756 20.8505 4.56726C20.4176 4.81394 20.0684 5.14905 19.8668 5.54408C19.6197 6.02695 19.6019 6.55463 19.816 7.02937L20.1633 6.90777C19.986 6.51682 20.0025 6.08048 20.2068 5.68021C20.4539 5.19675 20.9527 4.80638 21.5747 4.60973L21.5727 4.60566C22.2085 4.44509 22.7146 4.4096 23.162 4.49745C23.7115 4.60508 24.1471 4.91517 24.3283 5.32765C24.5022 5.72268 24.4462 6.17182 24.3869 6.6483C24.3612 6.85309 24.3355 7.05845 24.3283 7.26033C24.321 7.44592 24.3335 7.68271 24.4897 7.86015C24.6781 8.07308 24.9793 8.1045 25.2408 8.13184C25.5881 8.16791 26.4144 8.3151 26.5718 8.90212C26.6259 9.10342 26.5883 9.33206 26.5402 9.54964C26.4104 10.1384 26.1521 10.7016 25.793 11.1792C25.3937 11.711 24.4047 12.0973 23.5738 12.0705C23.1086 12.0531 22.4813 11.9 22.0682 11.3049C22.1769 11.1245 22.3008 10.9488 22.4326 10.776C22.6632 10.8232 22.9024 10.8557 23.1541 10.8557C23.2417 10.8557 23.33 10.8528 23.4183 10.8464L23.39 10.5183C22.683 10.5654 21.999 10.3897 21.5687 10.0482C21.2894 9.82657 21.1372 9.55313 21.1266 9.25817L20.7537 9.26864C20.7635 9.56186 20.8782 9.8353 21.0884 10.0744C20.8729 10.349 20.6851 10.655 20.5448 10.8889C20.5224 10.9256 20.5 10.964 20.4769 11C20.2298 10.6411 20.1817 10.5811 20.1145 10.4043C20.189 10.3775 20.2661 10.3618 20.3379 10.3275L20.1593 10.0378C19.4088 10.3985 18.4765 10.2402 18.0824 9.68287L17.7662 9.85799C17.9348 10.0965 18.1819 10.274 18.4672 10.3926C18.4811 10.623 18.4811 10.9221 18.4752 11.1594C18.116 10.8255 17.6021 10.534 16.872 10.2455L16.8654 10.2431C16.9181 10.1093 16.959 9.97027 16.9689 9.82308L16.5959 9.80272C16.5492 10.484 15.8817 11.0245 15.0982 11.0245C15.0844 11.0245 15.0692 11.0239 15.0554 11.0239L15.0449 11.3532C15.062 11.3537 15.0805 11.3538 15.0982 11.3538C15.3242 11.3538 15.541 11.3142 15.744 11.2479C16.0458 11.4224 16.3337 11.608 16.592 11.8139C16.5571 12.3102 16.3317 12.6604 15.9087 12.846C15.0356 13.2288 13.6743 12.8559 13.3633 12.6581C12.9041 12.3655 11.8847 11.4841 11.8557 10.6795C11.8472 10.4526 11.722 9.96446 12.7841 9.61888C13.0102 9.54557 13.2843 9.4362 13.3877 9.1837C13.4734 8.97484 13.3976 8.74504 13.3218 8.56876C13.2401 8.37794 13.1406 8.18827 13.0405 7.99861C12.8079 7.55704 12.5878 7.1399 12.6089 6.72218C12.6293 6.28759 12.9285 5.89373 13.4088 5.66392ZM21.3289 15.6143C21.3744 15.7632 21.348 15.7935 21.3065 15.8191C21.238 15.8604 21.1068 15.8802 21.0106 15.8953L20.2522 16.0111L19.3403 16.1158C19.2441 16.1274 19.1103 16.1414 19.0326 16.1193C18.9832 16.1053 18.9476 16.0832 18.9423 15.9296C18.8949 14.6008 18.5048 13.4506 17.7826 12.5122C17.3583 11.9601 16.7903 11.4807 16.1327 11.0741C16.3805 10.9298 16.5841 10.7343 16.7304 10.5068C17.5692 10.8483 18.1694 11.2684 18.4646 11.6774L18.549 11.7914L18.69 11.7454C18.8955 11.6785 18.8705 10.8658 18.8679 10.5138C19.0115 10.5417 19.1598 10.558 19.3107 10.558C19.4615 10.558 19.6138 10.5377 19.7653 10.5086C19.8543 10.7023 19.9946 10.9478 20.3102 11.3853L20.3774 11.4703L20.4842 11.4662C20.6245 11.4615 20.6726 11.3812 20.8762 11.0426C21.0027 10.832 21.1688 10.5598 21.3539 10.3143C21.5542 10.4673 21.7928 10.5877 22.0557 10.6767C21.7341 11.1125 21.4765 11.5709 21.3091 12.0468C20.9283 13.1299 20.9349 14.3307 21.3289 15.6143ZM6.01714 19.9118C6.01714 16.8685 8.80499 14.3924 12.2326 14.3924C15.6603 14.3924 18.4481 16.8685 18.4481 19.9118C18.4481 22.9545 15.6603 25.4305 12.2326 25.4305C8.80499 25.4305 6.01714 22.9551 6.01714 19.9118ZM23.6443 29.3494C21.4969 29.3494 19.7501 27.8071 19.7501 25.9111C19.7501 24.0151 21.4969 22.4733 23.6443 22.4733C25.7917 22.4733 27.5378 24.0151 27.5378 25.9111C27.5378 27.8071 25.7917 29.3494 23.6443 29.3494ZM27.9826 26.3038C27.9977 26.1746 28.005 26.0437 28.005 25.9111C28.005 23.7882 26.0487 22.0609 23.6443 22.0609C21.2399 22.0609 19.283 23.7882 19.283 25.9111C19.283 27.0427 19.8424 28.0585 20.7253 28.7636C20.4822 28.7781 20.2384 28.7886 19.9913 28.7898H19.9373C16.5617 28.7898 13.4912 27.6349 11.1771 25.7622C11.5217 25.811 11.8722 25.8436 12.232 25.8436C15.9166 25.8436 18.9146 23.1831 18.9146 19.9123C18.9146 16.6416 15.9173 13.9799 12.2326 13.9799C10.1182 13.9799 8.23372 14.859 7.00814 16.2238C7.37977 12.7675 9.49223 9.7521 12.5674 7.87411C12.6115 7.96138 12.6563 8.04865 12.7018 8.13533C12.798 8.31685 12.8935 8.49953 12.9713 8.68279C13.02 8.79624 13.08 8.96088 13.0359 9.06851C12.9891 9.18428 12.8118 9.24944 12.6201 9.31926C12.12 9.50136 11.6969 9.83414 11.5718 10.054C11.4466 10.2734 11.4624 10.5329 11.4927 10.7853C11.5243 11.0466 11.7773 11.5062 11.776 11.5068C12.1898 12.1333 12.6372 12.5999 13.1439 12.9222C13.4259 13.102 14.1995 13.3394 14.9829 13.3394C15.3625 13.3394 15.7446 13.2835 16.0747 13.1387C16.4088 12.992 16.7963 12.6942 16.9274 12.1101C17.1264 12.2962 17.3135 12.4888 17.473 12.6959C18.1543 13.582 18.5226 14.6728 18.5681 15.9382C18.5714 16.0365 18.5819 16.3361 18.9166 16.4315C18.9884 16.4525 19.0662 16.4595 19.1407 16.4595C19.2289 16.4595 19.3146 16.4496 19.3851 16.442L21.0726 16.2192C21.203 16.1994 21.3823 16.1727 21.5187 16.0889C21.8066 15.9108 21.7209 15.6322 21.6887 15.5269C21.3091 14.2877 21.3012 13.1811 21.6649 12.1438C21.7256 11.971 21.8027 11.8011 21.8877 11.6336C22.285 12.0955 22.8589 12.3719 23.5586 12.398C24.5325 12.4481 25.6322 11.9885 26.1047 11.3596C26.4901 10.8464 26.7675 10.242 26.9072 9.61131C26.9632 9.35707 27.0054 9.08655 26.9356 8.82358C26.7241 8.03468 25.7113 7.84619 25.2659 7.79964C25.0748 7.77986 24.8778 7.7595 24.7855 7.65478C24.7032 7.56111 24.6979 7.3988 24.7025 7.2679C24.7098 7.07474 24.7341 6.8781 24.7592 6.68146C24.7598 6.67797 24.7598 6.6739 24.7605 6.67041C26.3584 7.23357 27.8337 8.06494 29.0915 9.16683C29.6292 9.63749 30.1036 10.1483 30.5339 10.6824C30.1629 10.6987 29.7886 10.7574 29.4243 10.829C28.6665 10.9768 27.69 11.2048 26.8637 11.6574C25.8912 12.1904 25.1242 13.0368 24.7058 14.0416C24.3421 14.9119 24.2255 15.9027 24.3605 16.9959C24.3731 17.0942 24.3836 17.1873 24.3513 17.2548C24.323 17.3141 24.2518 17.3746 24.1886 17.4281C23.5666 17.9576 22.9926 18.5661 22.4372 19.1554C22.1875 19.4207 21.9318 19.6889 21.6722 19.9525C20.869 20.1637 20.0467 20.376 19.2454 20.5139L19.31 20.8391C19.847 20.7652 20.3913 20.7111 20.9335 20.6518C20.8598 20.7181 20.7899 20.7926 20.7148 20.8566L20.9685 21.0986C21.2011 20.9165 21.4501 20.7437 21.6887 20.5645C22.5914 20.4773 23.4967 20.4074 24.3994 20.3621C24.8027 20.3411 25.1638 20.3289 25.5117 20.3894C25.9314 20.4621 26.3215 20.6442 26.7194 20.831C27.8943 21.3784 29.2457 21.9463 30.6736 21.9463C30.864 21.9463 31.0564 21.9358 31.2494 21.9143C31.4577 21.891 31.6711 21.8485 31.886 21.7973C31.0261 23.5741 29.6753 25.1187 27.9826 26.3038ZM33.5299 16.5328C34.2132 16.7387 34.8945 16.9953 35.2484 17.466C35.7557 18.1397 35.3907 19.0443 34.9242 19.6139C34.4425 20.2027 33.7368 20.7169 32.8829 21.1027C32.3024 21.3645 31.737 21.5268 31.2013 21.5867C29.6766 21.7595 28.1743 21.1364 26.873 20.529C26.4717 20.3417 26.0566 20.148 25.5828 20.0654C25.3654 20.0281 25.144 20.0153 24.9186 20.0153C24.7401 20.0153 24.5595 20.0235 24.377 20.0322C23.6529 20.0694 22.9261 20.1212 22.2 20.1846C22.2164 20.1724 22.2329 20.1602 22.2501 20.148C23.0454 19.9391 23.8585 19.7297 24.6505 19.5941C24.7697 19.5737 24.9167 19.5487 25.0465 19.4789C25.2046 19.3934 25.2955 19.266 25.3799 19.1479C25.7541 18.6225 26.1818 18.1757 26.639 17.7784C26.7702 17.7679 26.902 17.7598 27.0357 17.7516C28.5776 17.6597 30.325 17.4869 31.54 16.5944C31.7087 16.4705 31.8655 16.3262 32.0158 16.1721C32.3136 16.2204 32.5989 16.2809 32.8677 16.3489C32.8677 16.3501 32.8684 16.3518 32.8684 16.353C32.875 16.3536 32.8822 16.3542 32.8888 16.3547C33.1161 16.4131 33.3342 16.4736 33.5299 16.5328ZM22.9795 19.6185C23.5738 19.2049 24.178 18.8 24.7948 18.4125C25.111 18.2135 25.4003 18.0402 25.7238 17.9349C25.8293 17.8994 25.9399 17.8732 26.0533 17.8511C25.6988 18.1909 25.3601 18.5556 25.059 18.978C24.9951 19.067 24.9351 19.152 24.8514 19.1973C24.7803 19.2351 24.6781 19.2532 24.58 19.2701C24.0489 19.3614 23.5132 19.4859 22.9795 19.6185ZM32.2708 15.8835C32.4058 15.7165 32.535 15.5403 32.6509 15.3465C32.6602 15.3308 32.6661 15.3151 32.6753 15.2994C32.7313 15.5298 32.7768 15.7613 32.813 15.9952C32.6384 15.9545 32.4572 15.918 32.2708 15.8835ZM32.3215 15.1923C32.0388 15.6648 31.6955 16.0511 31.3008 16.3408C30.1721 17.1698 28.4945 17.3339 26.9843 17.4235C26.5211 17.4508 26.0408 17.4793 25.5934 17.6254C25.227 17.7452 24.9167 17.9302 24.578 18.1437C23.9448 18.5417 23.3228 18.9541 22.7133 19.3794C22.7172 19.3748 22.7212 19.3707 22.7251 19.3672C23.2733 18.7854 23.84 18.1833 24.4475 17.6667C24.5319 17.5957 24.6366 17.5067 24.6959 17.3851C24.7651 17.2379 24.748 17.0913 24.7315 16.9517C24.6037 15.9196 24.7137 14.9788 25.0563 14.1562C25.4477 13.2207 26.1594 12.433 27.0614 11.939C27.8402 11.5126 28.7766 11.2944 29.5053 11.1513C29.9105 11.0727 30.3263 11.0076 30.7269 11.0076C31.0327 11.0076 31.3298 11.0454 31.6066 11.1443C32.5211 11.4724 32.8816 12.3509 32.9138 13.063C32.9448 13.7606 32.7399 14.4973 32.3215 15.1923Z" fill="black"/>
<path d="M32.1976 13.0551L32.16 12.8096L30.6294 12.9895L31.8404 12.0168L31.6513 11.834L25.1123 17.0869L25.3001 17.2696L27.093 15.8297L31.4543 15.0792L31.4003 14.836L27.4929 15.5087L28.8958 14.3822L28.8977 14.3963L31.8253 14.032L31.7871 13.7864L29.243 14.1031L30.265 13.282L32.1976 13.0551Z" fill="black"/>
<path d="M46.0461 3.68314C46.0376 3.34978 45.9605 3.19677 45.7733 2.9018L45.7259 2.82617L44.8963 2.83839L44.9741 10.0926L44.5939 10.0996L44.5168 2.84421L43.338 2.86166L43.4158 10.1374C43.2846 10.138 43.1081 10.1409 42.9769 10.1438L42.8992 2.86806L41.7204 2.88551L41.7975 10.1409L41.4364 10.145L41.3586 2.89075L40.5291 2.90355L40.483 2.98093C40.448 3.03969 40.419 3.08332 40.3966 3.11881C40.2906 3.28229 40.2695 3.33756 40.2682 3.59936C40.2543 6.49954 40.2813 9.14549 40.3512 11.689L40.3551 11.9345C40.3657 12.7758 40.4006 13.4879 40.7202 13.6752C42.2053 14.5427 42.0986 15.875 41.9754 17.4173C41.9536 17.6913 41.9312 17.967 41.9194 18.2411C41.8014 20.8434 41.7184 23.4905 41.638 26.0509C41.6104 26.9323 41.5827 27.8137 41.5537 28.6951C41.5214 29.6841 41.5319 30.7959 42.0696 31.4661C42.2198 31.6535 42.405 31.796 42.6238 31.892C42.8412 31.988 43.0916 32.0386 43.3736 32.0427L43.4184 32.0409L43.4619 32.0404L43.5093 32.0409C44.0727 32.0153 44.5069 31.8082 44.7988 31.4248C45.322 30.7383 45.3082 29.6265 45.2548 28.6393C45.2073 27.766 45.1612 26.8922 45.1151 26.0189C44.9794 23.455 44.8397 20.8044 44.6664 18.1998C44.6479 17.9263 44.6203 17.6517 44.5926 17.3783C44.4364 15.8401 44.3013 14.5118 45.7674 13.5996C46.1035 13.3902 46.1344 12.6606 46.1371 11.8671L46.1377 11.774C46.1516 9.23334 46.1219 6.58681 46.0461 3.68314ZM45.8228 11.7705L45.8221 11.8647C45.8208 12.2155 45.8168 13.1476 45.6205 13.2703C43.9627 14.3012 44.1241 15.8883 44.2796 17.4225C44.3073 17.6907 44.3343 17.9601 44.3521 18.2288C44.526 20.8306 44.6657 23.48 44.8008 26.0422C44.8469 26.916 44.893 27.7899 44.9411 28.6631C44.9906 29.5753 45.007 30.597 44.5656 31.1764C44.329 31.4859 43.9798 31.6476 43.4968 31.6692L43.4369 31.668L43.3762 31.6709C42.8926 31.6628 42.5407 31.5127 42.2976 31.2101C41.8436 30.6441 41.8383 29.6225 41.868 28.7091C41.897 27.8277 41.9247 26.9463 41.9523 26.0643C42.0327 23.5056 42.1157 20.8602 42.233 18.2608C42.2455 17.9921 42.2666 17.7215 42.2884 17.4522C42.4109 15.9139 42.5381 14.3228 40.8592 13.3419C40.6859 13.2406 40.674 12.2883 40.6701 11.9293L40.6655 11.6774C40.5963 9.1385 40.5693 6.49722 40.5831 3.60169C40.5838 3.4417 40.5838 3.4417 40.6464 3.3457C40.6595 3.32476 40.6754 3.30149 40.6925 3.27356L41.0503 3.26833L41.128 10.5214L42.1177 10.5103L42.04 3.2532L42.5908 3.24505L42.6686 10.5319L42.8326 10.5214C42.9229 10.5156 43.4757 10.5069 43.5719 10.5103L43.7353 10.5156L43.6569 3.22935L44.2078 3.2212L44.2855 10.4778L45.2937 10.4592L45.2159 3.20549L45.5717 3.20026C45.6989 3.40679 45.7285 3.49057 45.7345 3.69477C45.8083 6.59379 45.8379 9.23566 45.8228 11.7705Z" fill="black"/>
<path d="M42.4062 26.0313L42.7199 26.0423L42.7654 24.2987L42.4524 24.2871L42.4062 26.0313Z" fill="black"/>
<path d="M42.5015 23.6048L42.8144 23.6164L42.9561 18.2402L42.6425 18.2285L42.5015 23.6048Z" fill="black"/>
</svg>
