<svg width="64" height="60" viewBox="0 0 64 60" fill="none" xmlns="http://www.w3.org/2000/svg">
<g clip-path="url(#clip0_331_1748)">
<path d="M49.1703 20.8594H14.918C11.8823 20.8594 9.59326 22.9809 9.59326 25.7944V37.9556C9.59326 40.8848 12.0316 43.3594 14.918 43.3594H49.1703C52.0567 43.3594 54.4951 40.8848 54.4951 37.9552V25.7944C54.4951 22.9809 52.206 20.8594 49.1703 20.8594ZM53.9094 38C53.9094 40.4211 51.5276 42.8273 49.1703 42.8273H14.918C12.5612 42.8273 10.1789 40.4216 10.1789 38V26C10.1789 23.7209 12.4387 21.3765 14.918 21.3765L49.1703 21.5C51.6492 21.5 53.9094 23.45 53.9094 25.7291V38Z" fill="black"/>
<path d="M7.95725 30.5751L2.58758 30.5003C2.28059 30.5003 1.32871 30.0003 1.43451 29.5728V28.6742C1.43451 28.5589 2.18103 28.3597 2.58758 28.3597H10.0813C10.3507 28.3597 10.6995 28.0003 10.5694 27.8909C11.2201 28.5005 10.3507 27.7764 10.0813 27.7764L2.58758 27.7764C1.84866 27.7764 0.808105 27.8108 0.808105 28.6742V29.5728C0.808105 30.3814 1.82718 31.1722 2.58758 31.1722H7.95725C9.01244 31.1722 9.93721 31.7413 9.93721 32.7739C9.93721 33.0331 9.81189 33.2427 10.0813 33.2427C10.3507 33.2427 10.4721 33.0331 10.4721 32.7739C10.4721 31.2313 9.54395 30.5751 7.95725 30.5751Z" fill="black"/>
<path d="M62.0528 27.5916L54.0071 27.6269C53.7377 27.6269 53.519 27.631 53.519 27.8903C53.519 28.1495 53.7377 27.9995 54.0071 27.9995H62.2391C62.447 27.9995 62.7597 28.185 62.7597 28.4995V29.9995C62.7597 30.3459 62.1846 30.7136 62.0528 30.7136L56.6827 30.6433C55.0862 30.6433 53.5648 31.7823 53.5648 33.3592C53.5648 33.6184 53.7377 33.8279 54.0071 33.8279C54.2765 33.8279 54.1624 33.6184 54.1624 33.3592C54.1624 32.3162 55.6397 31.1715 56.6827 31.1715H62.0528C62.7869 31.1715 63.2803 30.5289 63.2803 29.5721V28.6735C63.2803 27.8781 62.8328 27.5916 62.0528 27.5916Z" fill="black"/>
<path d="M54.0071 27.7273L16.817 27.7273C16.5475 27.7273 16.4263 27.6314 16.4263 27.8906C16.4263 28.1498 16.6775 28.205 16.9469 28.205H54.0071C54.2765 28.205 54.4952 28.1498 54.4952 27.8906C54.4952 27.6314 54.2765 27.7273 54.0071 27.7273Z" fill="black"/>
<path d="M54.007 26.0156L10.0813 25.9567C9.81191 25.9567 9.59326 25.7563 9.59326 26.0156C9.59326 26.2748 9.81191 26.4843 10.0813 26.4843H54.007C54.2764 26.4843 54.4951 26.2748 54.4951 26.0156C54.4951 25.7563 54.2764 26.0156 54.007 26.0156Z" fill="black"/>
<path d="M13.0097 27.7528L10.003 27.7529C9.73362 27.7529 9.59326 27.6317 9.59326 27.8909C9.59326 28.1502 9.81191 28.3597 10.0813 28.3597H13.0097C13.2791 28.3597 13.3025 28.2597 13.3025 28.0005C13.3025 27.7413 13.2791 27.7528 13.0097 27.7528Z" fill="black"/>
<path d="M34.7511 16.6406H29.8895C29.0822 16.6406 28.4253 17.2716 28.4253 18.0469C28.4253 18.8222 29.0822 19.4531 29.8895 19.4531H34.7511C35.5583 19.4531 36.2153 18.8222 36.2153 18.0469C36.2153 17.2716 35.5583 16.6406 34.7511 16.6406ZM34.7511 19H29.9617C29.6971 19 28.9205 18.2541 28.9205 18C28.9205 17.7459 29.6971 17 29.9617 17H34.6471C34.9116 17 35.6883 17.7459 35.6883 18C35.6883 18.2541 35.0156 19 34.7511 19Z" fill="black"/>
<path d="M31.0645 19.3496V20.7217" stroke="black" stroke-width="0.5" stroke-linecap="round"/>
<path d="M33.0903 19.5244V21.0462" stroke="black" stroke-width="0.5" stroke-linecap="round"/>
</g>
<defs>
<clipPath id="clip0_331_1748">
<rect width="62.4721" height="60" fill="white" transform="translate(0.808105)"/>
</clipPath>
</defs>
</svg>
